<?xml version="1.0" encoding="UTF-8"?>
<svg id="Capa_1" data-name="Capa 1" xmlns="http://www.w3.org/2000/svg" viewBox="0 0 800 537.04">
  <defs>
    <style>
      .cls-1 {
        fill: #66b246;
      }

      .cls-2 {
        fill: #eeb71c;
      }

      .cls-3 {
        fill: #e77e3a;
      }

      .cls-4 {
        fill: #e42c32;
      }

      .cls-5 {
        fill: #20305d;
      }

      .cls-6 {
        fill: #6e4493;
      }

      .cls-7 {
        fill: #24a7dc;
      }
    </style>
  </defs>
  <path class="cls-5" d="M113.11,220.87c-.16,0-.33,0-.49-.03-1.92-.19-3.54-1.5-4.14-3.33l-10.85-33.3c-.83-2.56,.56-5.31,3.12-6.14,2.56-.83,5.3,.56,6.14,3.12l7.43,22.81,11.84-20.87c1.33-2.34,4.3-3.16,6.64-1.83,2.34,1.33,3.16,4.3,1.83,6.64l-17.29,30.46c-.87,1.53-2.5,2.46-4.23,2.46"/>
  <path class="cls-4" d="M76.75,228.2c-.89,0-1.78-.25-2.55-.76l-28.26-18.36c-2.17-1.41-2.79-4.31-1.37-6.48,1.41-2.17,4.31-2.79,6.48-1.37l19.36,12.58-3.75-22.78c-.42-2.55,1.31-4.97,3.86-5.39,2.56-.42,4.97,1.31,5.39,3.86l5.48,33.26c.3,1.83-.51,3.67-2.06,4.69-.78,.51-1.67,.76-2.56,.76"/>
  <path class="cls-7" d="M21.97,256.18c-2.34,0-4.3-1.85-4.4-4.22-.11-2.43,1.78-4.49,4.21-4.6l21.7-.95-15.32-15.39c-1.71-1.72-1.71-4.51,.01-6.23,1.73-1.72,4.51-1.71,6.24,.01l22.37,22.48c1.23,1.23,1.62,3.08,.98,4.71-.64,1.63-2.17,2.73-3.92,2.8l-31.68,1.38c-.07,0-.13,0-.2,0"/>
  <path class="cls-6" d="M30.54,314.3c-1.21,0-2.42-.48-3.32-1.43-1.72-1.83-1.63-4.71,.2-6.43l16.33-15.36-22.36-1.71c-2.51-.19-4.38-2.38-4.19-4.88,.19-2.51,2.37-4.37,4.89-4.19l32.64,2.5c1.79,.14,3.34,1.33,3.94,3.02,.6,1.7,.14,3.6-1.17,4.83l-23.85,22.43c-.87,.83-1.99,1.24-3.11,1.24"/>
  <path class="cls-3" d="M66.12,350.16c-.32,0-.65-.04-.98-.12-2.17-.54-3.49-2.73-2.95-4.9l4.83-19.34-17.54,9.48c-1.97,1.06-4.42,.32-5.48-1.64-1.06-1.96-.33-4.42,1.64-5.48l25.6-13.82c1.41-.76,3.13-.62,4.41,.36,1.26,.98,1.83,2.62,1.44,4.17l-7.04,28.23c-.45,1.84-2.1,3.07-3.92,3.07"/>
  <path class="cls-1" d="M92.86,357.41c-.42,0-.85-.08-1.26-.24-1.78-.7-2.66-2.71-1.96-4.5l9.12-23.22c.5-1.28,1.71-2.14,3.08-2.2,1.36-.04,2.65,.7,3.26,1.93l11.02,22.38c.84,1.72,.14,3.8-1.58,4.64-1.72,.85-3.8,.14-4.65-1.58l-7.55-15.33-6.24,15.91c-.53,1.36-1.84,2.2-3.23,2.2"/>
  <path class="cls-2" d="M145.41,240.51c-1.43,0-2.83-.58-3.85-1.64-1.46-1.52-1.88-3.77-1.07-5.72l14.63-35.43c1.12-2.72,4.24-4.02,6.96-2.89,2.72,1.12,4.02,4.24,2.89,6.96l-10.02,24.27,24.69-8.95c2.77-1,5.83,.42,6.83,3.19,1,2.76-.42,5.82-3.19,6.83l-36.04,13.07c-.59,.21-1.21,.32-1.82,.32"/>
  <path class="cls-5" d="M127.05,302.13l-.73-5.27c-1.12,1.66-2.9,3.13-5.34,4.43-2.44,1.29-5.51,1.94-9.21,1.94s-7.01-.63-10.2-1.9c-3.19-1.27-5.98-3.08-8.34-5.45-2.37-2.36-4.24-5.2-5.63-8.52-1.39-3.32-2.09-7.03-2.09-11.12s.72-7.8,2.16-11.12c1.44-3.32,3.39-6.16,5.85-8.52,2.46-2.36,5.32-4.19,8.59-5.48,3.27-1.29,6.73-1.94,10.39-1.94s6.94,.5,9.69,1.5c2.76,1,5.1,2.27,7.02,3.81,1.93,1.54,3.47,3.25,4.65,5.15,1.17,1.9,2.05,3.76,2.63,5.56l-11.12,3.88c-.2-.78-.58-1.69-1.14-2.74-.56-1.05-1.35-2.05-2.38-3-1.02-.95-2.3-1.74-3.84-2.38-1.54-.63-3.38-.95-5.52-.95-1.75,0-3.53,.31-5.34,.91-1.81,.61-3.45,1.57-4.94,2.89-1.49,1.32-2.69,3-3.62,5.05-.93,2.05-1.39,4.51-1.39,7.39,0,2.73,.42,5.12,1.24,7.17,.83,2.05,1.96,3.75,3.4,5.12,1.43,1.36,3.09,2.4,4.97,3.11,1.87,.7,3.86,1.06,5.96,1.06s3.99-.3,5.52-.91c1.54-.61,2.82-1.35,3.84-2.23,1.02-.87,1.82-1.8,2.38-2.78,.56-.98,.91-1.83,1.06-2.56h-15.58v-9.8h26.4v27.72h-9.36Z"/>
  <path class="cls-5" d="M160.98,264.69c2.73,0,5.27,.48,7.61,1.43,2.34,.95,4.37,2.28,6.11,3.99,1.73,1.71,3.09,3.73,4.09,6.07,1,2.34,1.5,4.93,1.5,7.75s-.5,5.42-1.5,7.79c-1,2.37-2.37,4.41-4.09,6.11-1.73,1.71-3.77,3.04-6.11,3.99-2.34,.95-4.88,1.43-7.61,1.43s-5.27-.48-7.61-1.43c-2.34-.95-4.37-2.27-6.11-3.99-1.73-1.7-3.1-3.74-4.09-6.11-1-2.36-1.5-4.96-1.5-7.79s.5-5.41,1.5-7.75c1-2.34,2.37-4.36,4.09-6.07,1.73-1.71,3.77-3.03,6.11-3.99,2.34-.95,4.88-1.43,7.61-1.43m0,28.3c1.07,0,2.1-.18,3.07-.55,.98-.37,1.84-.93,2.6-1.68,.75-.76,1.36-1.69,1.82-2.81,.46-1.12,.7-2.46,.7-4.02s-.24-2.84-.7-3.99c-.46-1.15-1.07-2.09-1.82-2.82-.76-.73-1.62-1.28-2.6-1.64-.98-.36-2-.55-3.07-.55s-2.03,.18-3.04,.55c-1,.37-1.88,.91-2.63,1.64-.75,.73-1.36,1.67-1.83,2.82-.46,1.15-.69,2.48-.69,3.99s.23,2.84,.69,3.99c.46,1.15,1.08,2.1,1.83,2.85,.76,.76,1.64,1.32,2.63,1.68,1,.36,2.01,.55,3.04,.55"/>
  <path class="cls-5" d="M186.29,302.13v-52.95h10.9v20.04c.78-1.12,2.11-2.12,3.99-3,1.87-.87,4.06-1.32,6.54-1.32,2.63,0,5,.48,7.1,1.43,2.1,.95,3.86,2.27,5.3,3.95,1.43,1.68,2.55,3.68,3.33,6,.78,2.32,1.17,4.84,1.17,7.57s-.43,5.34-1.28,7.68c-.85,2.34-2.05,4.35-3.58,6.03-1.54,1.68-3.36,3-5.49,3.95-2.12,.95-4.45,1.43-6.98,1.43s-4.55-.46-6.33-1.39c-1.78-.92-3.09-2.1-3.92-3.51v4.09h-10.75Zm27.21-18.21c0-1.51-.22-2.84-.66-3.99-.44-1.15-1.04-2.08-1.79-2.82-.76-.73-1.64-1.28-2.63-1.64-1-.36-2.04-.55-3.11-.55s-2.11,.18-3.11,.55c-1,.37-1.88,.91-2.63,1.64-.76,.73-1.36,1.67-1.83,2.82-.46,1.15-.7,2.48-.7,3.99s.23,2.83,.7,3.95c.46,1.12,1.07,2.06,1.83,2.81,.76,.76,1.63,1.33,2.63,1.72,1,.39,2.03,.58,3.11,.58s2.1-.18,3.11-.55c1-.37,1.88-.93,2.63-1.68,.75-.76,1.35-1.71,1.79-2.85,.44-1.15,.66-2.48,.66-3.99"/>
  <path class="cls-5" d="M229.51,254.67c0-.88,.17-1.72,.51-2.52,.34-.8,.8-1.5,1.39-2.09,.59-.58,1.27-1.05,2.05-1.39,.78-.34,1.61-.51,2.48-.51,1.85,0,3.42,.63,4.69,1.9,1.26,1.27,1.9,2.81,1.9,4.61s-.63,3.34-1.9,4.61c-1.27,1.27-2.83,1.9-4.69,1.9-.87,0-1.71-.17-2.48-.51-.78-.34-1.46-.8-2.05-1.39-.59-.59-1.05-1.28-1.39-2.08-.34-.8-.51-1.65-.51-2.52m.95,11.12h11.12v36.35h-11.12v-36.35Z"/>
  <path class="cls-5" d="M283.11,291.68c-.44,1.56-1.12,3.04-2.05,4.46-.93,1.42-2.1,2.65-3.51,3.7-1.42,1.05-3.06,1.88-4.94,2.48-1.88,.61-3.96,.91-6.25,.91-2.49,0-4.88-.44-7.17-1.32-2.29-.88-4.32-2.14-6.07-3.8-1.75-1.66-3.15-3.68-4.17-6.07-1.02-2.39-1.54-5.12-1.54-8.19s.5-5.57,1.5-7.94c1-2.36,2.34-4.37,4.02-6.03,1.68-1.65,3.62-2.94,5.81-3.84,2.2-.9,4.46-1.35,6.8-1.35,5.66,0,10.11,1.63,13.35,4.9,3.24,3.27,4.86,7.85,4.86,13.75,0,.78-.03,1.52-.07,2.23-.05,.7-.1,1.11-.14,1.21h-25.31c.05,1.02,.3,1.96,.77,2.81,.46,.85,1.07,1.6,1.83,2.23,.75,.63,1.62,1.12,2.59,1.46,.98,.34,2,.51,3.07,.51,2.05,0,3.64-.44,4.79-1.32,1.15-.87,1.99-2.02,2.52-3.43l9.29,2.63Zm-10.09-12.07c-.05-.68-.21-1.39-.47-2.12-.27-.73-.7-1.39-1.28-1.97-.59-.59-1.33-1.07-2.23-1.47-.9-.39-2.01-.58-3.33-.58-1.17,0-2.19,.19-3.07,.58-.87,.39-1.62,.88-2.23,1.47-.61,.59-1.07,1.24-1.39,1.97-.32,.73-.5,1.44-.55,2.12h14.55Z"/>
  <path class="cls-5" d="M312.96,276.76c-.63-.15-1.24-.24-1.83-.29-.59-.05-1.15-.07-1.68-.07-1.12,0-2.2,.17-3.22,.51-1.02,.34-1.93,.9-2.71,1.68-.78,.78-1.4,1.81-1.86,3.07-.46,1.27-.7,2.8-.7,4.61v15.87h-11.12v-36.35h10.75v4.9c.49-1.02,1.11-1.88,1.86-2.56,.76-.68,1.57-1.22,2.45-1.61,.87-.39,1.77-.67,2.67-.84,.9-.17,1.72-.25,2.45-.25,1.12,0,2.1,.12,2.93,.36v10.97Z"/>
  <path class="cls-5" d="M328.97,302.13h-11.12v-36.35h10.75v4.16c.49-.87,1.12-1.63,1.9-2.26,.78-.64,1.62-1.16,2.52-1.57,.9-.42,1.85-.73,2.85-.95,1-.22,1.96-.33,2.89-.33,2.29,0,4.27,.38,5.93,1.13,1.65,.76,3.03,1.79,4.13,3.11,1.1,1.32,1.9,2.85,2.41,4.61,.51,1.76,.77,3.64,.77,5.63v22.82h-11.12v-20.92c0-1.8-.48-3.3-1.43-4.5-.95-1.19-2.45-1.79-4.5-1.79-1.85,0-3.32,.59-4.39,1.79-1.08,1.19-1.61,2.72-1.61,4.57v20.84Z"/>
  <path class="cls-5" d="M376.8,264.69c2.73,0,5.27,.48,7.61,1.43,2.34,.95,4.37,2.28,6.11,3.99,1.73,1.71,3.09,3.73,4.09,6.07,1,2.34,1.5,4.93,1.5,7.75s-.5,5.42-1.5,7.79c-1,2.37-2.37,4.41-4.09,6.11-1.73,1.71-3.77,3.04-6.11,3.99-2.34,.95-4.88,1.43-7.61,1.43s-5.27-.48-7.61-1.43c-2.34-.95-4.37-2.27-6.11-3.99-1.73-1.7-3.1-3.74-4.09-6.11-1-2.36-1.5-4.96-1.5-7.79s.5-5.41,1.5-7.75c1-2.34,2.36-4.36,4.09-6.07,1.73-1.71,3.77-3.03,6.11-3.99,2.34-.95,4.87-1.43,7.61-1.43m0,28.3c1.07,0,2.1-.18,3.07-.55,.98-.37,1.84-.93,2.6-1.68,.75-.76,1.36-1.69,1.82-2.81,.46-1.12,.7-2.46,.7-4.02s-.24-2.84-.7-3.99c-.46-1.15-1.07-2.09-1.82-2.82-.76-.73-1.62-1.28-2.6-1.64-.98-.36-2-.55-3.07-.55s-2.03,.18-3.04,.55c-1,.37-1.88,.91-2.63,1.64-.76,.73-1.37,1.67-1.83,2.82-.46,1.15-.7,2.48-.7,3.99s.23,2.84,.7,3.99c.46,1.15,1.07,2.1,1.83,2.85,.75,.76,1.63,1.32,2.63,1.68,1,.36,2.01,.55,3.04,.55"/>
  <path class="cls-5" d="M151.02,341.75c0,.77,.02,1.41,.05,1.94,.03,.52,.06,.87,.08,1.06h-4.91c-.02-.11-.05-.33-.08-.64-.03-.31-.05-.64-.05-.97-.39,.58-.97,1.06-1.77,1.43-.8,.37-1.7,.56-2.7,.56-1.19,0-2.29-.22-3.29-.66-1.01-.44-1.88-1.04-2.62-1.82-.74-.77-1.32-1.7-1.73-2.77-.42-1.08-.62-2.25-.62-3.53s.2-2.38,.6-3.44c.4-1.06,.96-1.99,1.68-2.77,.72-.78,1.57-1.4,2.55-1.83,.98-.44,2.07-.65,3.26-.65,.72,0,1.33,.06,1.85,.18,.52,.12,.95,.27,1.31,.44,.36,.17,.65,.35,.86,.55,.21,.21,.37,.38,.49,.54v-8.94h5.04v21.34Zm-12.5-5.38c0,.7,.1,1.3,.3,1.82s.48,.95,.82,1.29c.35,.35,.75,.61,1.21,.79,.46,.18,.94,.27,1.43,.27s.97-.09,1.43-.27c.46-.18,.86-.44,1.21-.79,.35-.35,.62-.78,.82-1.29,.2-.52,.3-1.12,.3-1.82s-.1-1.3-.3-1.82c-.2-.51-.48-.94-.82-1.29-.35-.35-.75-.61-1.21-.77-.46-.17-.94-.25-1.43-.25s-.97,.08-1.43,.25c-.46,.17-.86,.42-1.21,.77-.35,.35-.62,.78-.82,1.29-.2,.52-.3,1.12-.3,1.82"/>
  <path class="cls-5" d="M170.22,339.94c-.2,.72-.52,1.4-.94,2.05-.42,.65-.96,1.22-1.61,1.7-.65,.48-1.41,.86-2.27,1.14-.86,.28-1.82,.42-2.87,.42-1.14,0-2.24-.2-3.29-.61-1.05-.4-1.99-.98-2.79-1.75-.8-.76-1.44-1.69-1.92-2.79-.47-1.1-.7-2.35-.7-3.76s.23-2.56,.69-3.65c.45-1.08,1.07-2.01,1.85-2.77,.77-.76,1.66-1.35,2.67-1.76,1.01-.42,2.05-.63,3.13-.63,2.6,0,4.64,.75,6.13,2.25,1.49,1.5,2.24,3.61,2.24,6.32,0,.36-.01,.7-.03,1.02-.02,.32-.05,.51-.07,.56h-11.63c.02,.47,.14,.9,.35,1.29,.21,.39,.49,.73,.84,1.02,.35,.29,.74,.52,1.19,.67,.45,.15,.91,.23,1.41,.23,.94,0,1.68-.2,2.2-.6,.52-.4,.91-.93,1.16-1.58l4.27,1.21Zm-4.64-5.55c-.02-.31-.1-.64-.22-.98-.12-.34-.32-.64-.59-.91-.27-.27-.61-.49-1.03-.67-.41-.18-.92-.27-1.53-.27-.54,0-1.01,.09-1.41,.27-.4,.18-.74,.4-1.02,.67-.28,.27-.49,.57-.64,.91-.15,.34-.23,.66-.25,.98h6.69Z"/>
  <rect class="cls-5" x="173.24" y="320.41" width="5.11" height="24.34"/>
  <polygon class="cls-5" points="192.17 344.74 192.17 313.29 212.08 313.29 212.08 319.9 199.18 319.9 199.18 325.89 210.89 325.89 210.89 332.06 199.18 332.06 199.18 338.09 212.13 338.09 212.13 344.74 192.17 344.74"/>
  <path class="cls-5" d="M222.91,344.74h-6.74v-22.04h6.52v2.53c.3-.53,.68-.99,1.15-1.38,.47-.38,.98-.7,1.53-.95,.55-.25,1.12-.44,1.73-.58,.6-.13,1.19-.2,1.75-.2,1.39,0,2.59,.23,3.59,.69,1,.46,1.84,1.08,2.51,1.89,.66,.8,1.15,1.73,1.46,2.8,.31,1.06,.47,2.2,.47,3.42v13.84h-6.74v-12.69c0-1.09-.29-2-.87-2.73-.58-.72-1.49-1.08-2.73-1.08-1.12,0-2.01,.36-2.66,1.08-.65,.73-.98,1.65-.98,2.77v12.64Z"/>
  <path class="cls-5" d="M252.09,328.24c-.71,0-1.37,.12-1.97,.35-.61,.24-1.14,.59-1.6,1.06-.46,.47-.82,1.05-1.09,1.73-.26,.68-.4,1.47-.4,2.35s.14,1.66,.42,2.33c.28,.66,.65,1.23,1.11,1.71,.46,.47,1,.83,1.62,1.06s1.29,.35,1.99,.35c1.3,0,2.33-.34,3.08-1.02s1.25-1.43,1.48-2.26l5.95,1.82c-.24,.98-.64,1.92-1.22,2.84-.58,.92-1.31,1.73-2.19,2.44-.89,.71-1.92,1.29-3.11,1.73-1.19,.44-2.52,.66-3.99,.66-1.65,0-3.2-.29-4.63-.87s-2.69-1.38-3.75-2.42c-1.06-1.03-1.91-2.26-2.53-3.68-.62-1.42-.93-2.99-.93-4.7s.3-3.29,.91-4.72c.6-1.43,1.43-2.66,2.48-3.7,1.05-1.04,2.28-1.84,3.68-2.42,1.4-.58,2.92-.86,4.55-.86,1.51,0,2.87,.21,4.08,.64,1.21,.43,2.26,1,3.15,1.71,.89,.71,1.61,1.53,2.17,2.46,.56,.93,.96,1.88,1.2,2.86l-6.03,1.82c-.12-.41-.3-.82-.53-1.22-.24-.4-.53-.75-.89-1.06-.35-.31-.78-.56-1.29-.73-.5-.18-1.08-.27-1.73-.27"/>
  <path class="cls-5" d="M280.17,344.74c-.06-.21-.1-.56-.13-1.05-.03-.49-.04-.87-.04-1.17-.59,.94-1.44,1.64-2.55,2.06-1.11,.43-2.22,.64-3.35,.64-1.33,0-2.52-.23-3.57-.69-1.05-.46-1.93-1.08-2.64-1.86-.71-.78-1.25-1.69-1.62-2.73-.37-1.04-.56-2.14-.56-3.33v-13.92h6.74v12.51c0,1.06,.29,1.96,.87,2.7,.57,.74,1.47,1.11,2.68,1.11,1.12,0,2.02-.35,2.69-1.05,.66-.69,1-1.6,1-2.73v-12.55h6.74v18.09c0,1.01,.03,1.87,.09,2.59,.06,.73,.1,1.18,.13,1.36h-6.47Z"/>
  <path class="cls-5" d="M311.75,338.4c-.27,.94-.68,1.85-1.24,2.7-.56,.86-1.27,1.61-2.13,2.24-.85,.63-1.85,1.14-2.99,1.5-1.14,.37-2.4,.56-3.79,.56-1.51,0-2.96-.27-4.34-.8-1.39-.53-2.62-1.3-3.68-2.31-1.06-1.01-1.91-2.23-2.53-3.68-.62-1.45-.93-3.11-.93-4.97s.31-3.38,.91-4.81c.61-1.43,1.42-2.65,2.44-3.66,1.02-1,2.2-1.78,3.53-2.33,1.33-.55,2.7-.82,4.13-.82,3.43,0,6.13,.99,8.09,2.97,1.97,1.98,2.95,4.76,2.95,8.34,0,.47-.01,.92-.04,1.35-.03,.43-.06,.67-.09,.73h-15.35c.03,.62,.18,1.19,.46,1.71,.28,.52,.65,.97,1.11,1.35,.45,.38,.98,.68,1.57,.89,.59,.21,1.21,.31,1.86,.31,1.25,0,2.21-.27,2.91-.8,.69-.53,1.2-1.22,1.53-2.08l5.63,1.6Zm-6.12-7.32c-.03-.42-.13-.84-.29-1.29-.16-.45-.42-.84-.78-1.2-.35-.35-.81-.65-1.35-.89-.55-.23-1.22-.35-2.02-.35-.71,0-1.33,.12-1.86,.35-.53,.24-.98,.53-1.35,.89-.37,.35-.65,.75-.84,1.2-.19,.44-.3,.87-.33,1.29h8.83Z"/>
  <path class="cls-5" d="M322.57,344.74h-6.74v-22.04h6.52v2.53c.3-.53,.68-.99,1.15-1.38,.47-.38,.98-.7,1.53-.95,.55-.25,1.12-.44,1.73-.58,.61-.13,1.19-.2,1.75-.2,1.39,0,2.59,.23,3.59,.69,1.01,.46,1.84,1.08,2.51,1.89,.66,.8,1.15,1.73,1.46,2.8,.31,1.06,.47,2.2,.47,3.42v13.84h-6.74v-12.69c0-1.09-.29-2-.87-2.73-.58-.72-1.49-1.08-2.73-1.08-1.12,0-2.01,.36-2.66,1.08-.65,.73-.98,1.65-.98,2.77v12.64Z"/>
  <path class="cls-5" d="M349.63,322.7h4.3v5.9h-4.3v8.25c0,.92,.22,1.53,.66,1.84,.45,.31,1.04,.46,1.77,.46,.36,0,.69-.02,1-.07,.31-.04,.57-.1,.77-.15v5.59c-.15,.06-.5,.18-1.06,.35-.56,.18-1.38,.27-2.44,.27-2.31,0-4.11-.63-5.41-1.89-1.3-1.26-1.95-2.99-1.95-5.21v-9.45h-3.9v-5.9h1.11c1.15,0,2.01-.34,2.57-1.02,.56-.68,.84-1.54,.84-2.57v-2.84h6.03v6.43Z"/>
  <path class="cls-5" d="M371.63,329.35c-.39-.09-.76-.15-1.11-.17-.35-.03-.69-.05-1.02-.05-.68,0-1.33,.1-1.95,.31-.62,.21-1.17,.55-1.64,1.02-.47,.48-.85,1.1-1.13,1.87-.28,.77-.42,1.7-.42,2.79v9.63h-6.74v-22.05h6.52v2.97c.3-.62,.67-1.14,1.13-1.55,.46-.42,.95-.74,1.49-.98,.53-.24,1.07-.41,1.62-.51,.55-.1,1.04-.15,1.48-.15,.68,0,1.27,.07,1.78,.22v6.65Z"/>
  <path class="cls-5" d="M384.8,322.03c1.65,0,3.19,.29,4.62,.87,1.42,.58,2.65,1.38,3.7,2.41,1.05,1.04,1.88,2.26,2.48,3.68,.6,1.42,.91,2.99,.91,4.7s-.31,3.29-.91,4.72c-.61,1.43-1.43,2.66-2.48,3.7-1.05,1.04-2.28,1.84-3.7,2.42-1.42,.58-2.96,.86-4.62,.86s-3.19-.28-4.62-.86c-1.42-.58-2.65-1.38-3.7-2.42-1.05-1.04-1.88-2.27-2.48-3.7-.6-1.43-.91-3.01-.91-4.72s.31-3.29,.91-4.7c.61-1.42,1.43-2.65,2.48-3.68,1.05-1.03,2.28-1.84,3.7-2.41,1.42-.58,2.96-.87,4.62-.87m0,17.17c.65,0,1.27-.11,1.86-.33,.59-.22,1.12-.56,1.57-1.02,.45-.46,.83-1.03,1.11-1.71,.28-.68,.42-1.49,.42-2.44s-.14-1.72-.42-2.42c-.28-.7-.65-1.26-1.11-1.71-.46-.45-.98-.78-1.57-1-.59-.22-1.22-.33-1.86-.33s-1.24,.11-1.84,.33c-.61,.22-1.14,.55-1.6,1-.46,.44-.83,1.01-1.11,1.71-.28,.7-.42,1.5-.42,2.42s.14,1.72,.42,2.41c.28,.7,.65,1.27,1.11,1.73,.46,.45,.99,.8,1.6,1.02,.6,.22,1.22,.33,1.84,.33"/>
  <rect class="cls-2" x="431.61" y="177.83" width="7.11" height="181.38"/>
  <rect class="cls-5" x="431.61" y="263.37" width="7.11" height="95.84"/>
  <rect class="cls-4" x="431.61" y="310.79" width="7.11" height="48.43"/>
  <path class="cls-5" d="M474.37,255.48v-.06c0-6.24,4.99-11.14,11.75-11.14,3.83,0,6.54,1.16,8.85,3.12l-3.55,4.2c-1.56-1.29-3.12-2.02-5.27-2.02-3.15,0-5.58,2.6-5.58,5.88v.06c0,3.46,2.46,5.94,5.92,5.94,1.47,0,2.59-.31,3.49-.89v-2.6h-4.3v-4.34h10.04v9.64c-2.31,1.87-5.52,3.31-9.48,3.31-6.79,0-11.87-4.59-11.87-11.08"/>
  <path class="cls-5" d="M498.8,256.73v-12.02h6.14v11.9c0,3.09,1.59,4.56,4.02,4.56s4.02-1.41,4.02-4.41v-12.05h6.14v11.87c0,6.92-4.02,9.94-10.22,9.94s-10.1-3.09-10.1-9.79"/>
  <rect class="cls-5" x="522.83" y="244.71" width="6.08" height="21.42"/>
  <polygon class="cls-5" points="532.89 244.71 538.94 244.71 538.94 260.93 549.5 260.93 549.5 266.13 532.89 266.13 532.89 244.71"/>
  <polygon class="cls-5" points="552.09 244.71 558.13 244.71 558.13 260.93 568.7 260.93 568.7 266.13 552.09 266.13 552.09 244.71"/>
  <polygon class="cls-5" points="571.29 244.71 588.83 244.71 588.83 249.76 577.27 249.76 577.27 253 587.75 253 587.75 257.68 577.27 257.68 577.27 261.08 588.99 261.08 588.99 266.13 571.29 266.13 571.29 244.71"/>
  <path class="cls-5" d="M592.08,244.71h10.32c3.33,0,5.64,.86,7.1,2.32,1.28,1.22,1.93,2.88,1.93,4.99v.06c0,3.28-1.78,5.45-4.49,6.58l5.21,7.47h-6.98l-4.39-6.49h-2.65v6.49h-6.05v-21.42Zm10.04,10.28c2.06,0,3.24-.98,3.24-2.54v-.06c0-1.68-1.25-2.54-3.27-2.54h-3.96v5.14h3.99Z"/>
  <polygon class="cls-5" points="614.48 244.71 620.87 244.71 626.08 253 631.28 244.71 637.67 244.71 637.67 266.13 631.65 266.13 631.65 253.83 626.08 262.21 625.95 262.21 620.4 253.89 620.4 266.13 614.48 266.13 614.48 244.71"/>
  <path class="cls-5" d="M640.79,255.48v-.06c0-6.15,5.05-11.14,11.78-11.14s11.72,4.93,11.72,11.08v.06c0,6.15-5.05,11.14-11.78,11.14s-11.72-4.93-11.72-11.08m17.33,0v-.06c0-3.09-2.27-5.78-5.61-5.78s-5.52,2.63-5.52,5.72v.06c0,3.09,2.27,5.78,5.58,5.78s5.55-2.63,5.55-5.72"/>
  <polygon class="cls-5" points="676.06 244.71 682.11 244.71 682.11 260.93 692.67 260.93 692.67 266.13 676.06 266.13 676.06 244.71"/>
  <path class="cls-5" d="M702.81,244.56h5.83l9.29,21.57h-6.48l-1.59-3.83h-8.41l-1.56,3.83h-6.36l9.29-21.57Zm5.3,13.12l-2.43-6.09-2.46,6.09h4.89Z"/>
  <path class="cls-5" d="M718.08,262.95l3.37-3.95c2.15,1.68,4.55,2.57,7.07,2.57,1.62,0,2.5-.55,2.5-1.47v-.06c0-.89-.72-1.38-3.68-2.05-4.64-1.04-8.23-2.33-8.23-6.73v-.06c0-3.98,3.21-6.85,8.45-6.85,3.71,0,6.61,.98,8.98,2.85l-3.03,4.19c-1.99-1.38-4.17-2.11-6.11-2.11-1.47,0-2.18,.61-2.18,1.38v.06c0,.98,.75,1.41,3.77,2.08,5.02,1.07,8.14,2.66,8.14,6.67v.06c0,4.37-3.52,6.98-8.82,6.98-3.87,0-7.54-1.19-10.22-3.55"/>
  <path class="cls-5" d="M738.08,262.95l3.37-3.95c2.15,1.68,4.55,2.57,7.07,2.57,1.62,0,2.5-.55,2.5-1.47v-.06c0-.89-.72-1.38-3.68-2.05-4.64-1.04-8.23-2.33-8.23-6.73v-.06c0-3.98,3.21-6.85,8.45-6.85,3.71,0,6.61,.98,8.98,2.85l-3.03,4.19c-1.99-1.38-4.17-2.11-6.11-2.11-1.47,0-2.18,.61-2.18,1.38v.06c0,.98,.74,1.41,3.77,2.08,5.02,1.07,8.14,2.66,8.14,6.67v.06c0,4.37-3.52,6.98-8.82,6.98-3.87,0-7.54-1.19-10.22-3.55"/>
  <path class="cls-5" d="M759.31,255.48v-.06c0-6.15,5.05-11.14,11.78-11.14s11.72,4.93,11.72,11.08v.06c0,6.15-5.05,11.14-11.78,11.14s-11.72-4.93-11.72-11.08m17.33,0v-.06c0-3.09-2.27-5.78-5.61-5.78s-5.52,2.63-5.52,5.72v.06c0,3.09,2.27,5.78,5.58,5.78s5.55-2.63,5.55-5.72"/>
  <path class="cls-5" d="M526.88,271.39h8.62c5.09,0,8.31,3.05,8.31,7.68v.07c0,5.15-3.93,7.84-8.74,7.84h-4.34v7.38h-3.84v-22.96Zm8.31,11.94c2.9,0,4.72-1.71,4.72-4.1v-.06c0-2.69-1.84-4.1-4.72-4.1h-4.47v8.27h4.47Z"/>
  <path class="cls-5" d="M547.74,271.39h9.74c2.75,0,4.9,.85,6.31,2.3,1.16,1.25,1.81,2.95,1.81,4.95v.07c0,3.77-2.15,6.04-5.21,6.95l5.9,8.7h-4.52l-5.37-8.01h-4.81v8.01h-3.84v-22.96Zm9.46,11.38c2.75,0,4.5-1.51,4.5-3.84v-.07c0-2.46-1.68-3.8-4.53-3.8h-5.59v7.71h5.62Z"/>
  <polygon class="cls-5" points="570.33 271.39 586.53 271.39 586.53 275 574.17 275 574.17 280.97 585.13 280.97 585.13 284.58 574.17 284.58 574.17 290.75 586.69 290.75 586.69 294.36 570.33 294.36 570.33 271.39"/>
  <path class="cls-5" d="M589.79,291.01l2.31-2.88c2.09,1.9,4.19,2.98,6.9,2.98,2.37,0,3.87-1.15,3.87-2.89v-.07c0-1.64-.87-2.53-4.93-3.51-4.65-1.18-7.27-2.62-7.27-6.86v-.07c0-3.93,3.12-6.66,7.46-6.66,3.18,0,5.71,1.02,7.93,2.89l-2.06,3.05c-1.97-1.54-3.94-2.36-5.94-2.36-2.25,0-3.56,1.21-3.56,2.72v.07c0,1.77,1,2.56,5.18,3.61,4.62,1.18,7.02,2.92,7.02,6.72v.07c0,4.3-3.22,6.85-7.8,6.85-3.34,0-6.49-1.22-9.12-3.67"/>
  <rect class="cls-5" x="611.46" y="271.39" width="3.84" height="22.96"/>
  <path class="cls-5" d="M621.15,271.39h8.15c6.87,0,11.61,4.96,11.61,11.42v.07c0,6.46-4.75,11.48-11.61,11.48h-8.15v-22.96Zm8.15,19.29c4.59,0,7.59-3.25,7.59-7.74v-.07c0-4.5-3-7.81-7.59-7.81h-4.31v15.61h4.31Z"/>
  <polygon class="cls-5" points="645.58 271.39 661.79 271.39 661.79 275 649.42 275 649.42 280.97 660.38 280.97 660.38 284.58 649.42 284.58 649.42 290.75 661.94 290.75 661.94 294.36 645.58 294.36 645.58 271.39"/>
  <polygon class="cls-5" points="666.51 271.39 670.07 271.39 681.77 287.27 681.77 271.39 685.55 271.39 685.55 294.36 682.34 294.36 670.28 278.02 670.28 294.36 666.51 294.36 666.51 271.39"/>
  <polygon class="cls-5" points="696.55 275.13 689.62 275.13 689.62 271.39 707.35 271.39 707.35 275.13 700.42 275.13 700.42 294.35 696.55 294.35 696.55 275.13"/>
  <polygon class="cls-5" points="711.42 271.39 727.63 271.39 727.63 275 715.26 275 715.26 280.97 726.22 280.97 726.22 284.58 715.26 284.58 715.26 290.75 727.78 290.75 727.78 294.36 711.42 294.36 711.42 271.39"/>
</svg>