<?xml version="1.0" encoding="utf-8"?>
<!-- Generator: Adobe Illustrator 26.3.1, SVG Export Plug-In . SVG Version: 6.00 Build 0)  -->
<svg version="1.1" id="Layer_1" xmlns="http://www.w3.org/2000/svg" xmlns:xlink="http://www.w3.org/1999/xlink" x="0px" y="0px"
	 viewBox="0 0 353 102.88" style="enable-background:new 0 0 353 102.88;" xml:space="preserve">
<style type="text/css">
	.st0{fill:#FFFFFF;}
	.st1{fill:#242D58;}
	.st2{fill:#DD1F23;}
	.st3{fill:#2CA6DD;}
	.st4{fill:#6F3A8A;}
	.st5{fill:#E77A2E;}
	.st6{fill:#66AB2F;}
	.st7{fill:#F0BA00;}
	.st8{fill:#F9BD15;}
	.st9{fill:#E5232A;}
</style>
<g>
	<path class="st0" d="M0,10.93v81.01c0,6.04,4.9,10.93,10.93,10.93H353V0H10.93C4.9,0,0,4.9,0,10.93z"/>
	<path class="st1" d="M53.78,32.7c-0.06,0-0.13,0-0.2-0.01c-0.77-0.08-1.42-0.6-1.66-1.34L47.57,18c-0.33-1.02,0.23-2.13,1.25-2.46
		c1.03-0.33,2.13,0.23,2.46,1.25l2.98,9.14l4.75-8.36c0.53-0.94,1.72-1.27,2.66-0.73c0.94,0.53,1.26,1.72,0.73,2.66l-6.93,12.21
		C55.13,32.33,54.48,32.7,53.78,32.7"/>
	<path class="st2" d="M39.2,35.64c-0.36,0-0.71-0.1-1.02-0.3l-11.33-7.36c-0.87-0.57-1.12-1.73-0.55-2.6
		c0.56-0.87,1.72-1.11,2.6-0.55l7.76,5.04l-1.51-9.13c-0.17-1.02,0.53-1.99,1.55-2.16c1.03-0.17,1.99,0.52,2.16,1.55l2.2,13.33
		c0.12,0.73-0.2,1.47-0.83,1.88C39.92,35.53,39.56,35.64,39.2,35.64"/>
	<path class="st3" d="M17.24,46.85c-0.94,0-1.72-0.74-1.76-1.69c-0.04-0.98,0.71-1.8,1.69-1.84l8.7-0.38l-6.14-6.17
		c-0.69-0.69-0.68-1.81,0.01-2.5c0.69-0.69,1.81-0.69,2.5,0.01l8.97,9.01c0.49,0.5,0.65,1.24,0.4,1.89
		c-0.25,0.65-0.87,1.09-1.57,1.12l-12.7,0.56C17.3,46.85,17.27,46.85,17.24,46.85"/>
	<path class="st4" d="M20.68,70.15c-0.49,0-0.97-0.19-1.33-0.57c-0.69-0.73-0.65-1.89,0.08-2.58l6.55-6.16l-8.96-0.69
		c-1-0.08-1.76-0.95-1.68-1.96c0.08-1.01,0.95-1.75,1.96-1.68l13.08,1c0.72,0.06,1.34,0.53,1.58,1.21c0.24,0.68,0.06,1.44-0.47,1.94
		l-9.56,8.99C21.58,69.99,21.13,70.15,20.68,70.15"/>
	<path class="st5" d="M34.94,84.52c-0.13,0-0.26-0.02-0.39-0.05c-0.87-0.22-1.4-1.1-1.18-1.96l1.93-7.75l-7.03,3.8
		c-0.79,0.42-1.77,0.13-2.2-0.66c-0.43-0.79-0.13-1.77,0.65-2.2l10.26-5.54c0.56-0.31,1.26-0.25,1.76,0.14
		c0.51,0.39,0.74,1.05,0.58,1.67l-2.82,11.32C36.33,84.03,35.67,84.52,34.94,84.52"/>
	<path class="st6" d="M45.66,87.43c-0.17,0-0.34-0.03-0.51-0.1c-0.71-0.28-1.07-1.09-0.79-1.8l3.65-9.31
		c0.2-0.51,0.69-0.86,1.24-0.88c0.54-0.01,1.06,0.28,1.3,0.78l4.42,8.97c0.34,0.69,0.06,1.52-0.63,1.86
		c-0.69,0.34-1.52,0.05-1.86-0.63l-3.02-6.15l-2.5,6.38C46.74,87.09,46.22,87.43,45.66,87.43"/>
	<path class="st7" d="M66.73,40.57c-0.57,0-1.13-0.23-1.55-0.66c-0.58-0.61-0.75-1.51-0.43-2.29l5.87-14.2
		c0.45-1.09,1.7-1.61,2.79-1.16c1.09,0.45,1.61,1.7,1.16,2.79l-4.02,9.73l9.9-3.59c1.11-0.4,2.33,0.17,2.74,1.28
		c0.4,1.11-0.17,2.33-1.28,2.74l-14.45,5.24C67.22,40.53,66.97,40.57,66.73,40.57"/>
	<path class="st1" d="M59.36,65.27l-0.29-2.11c-0.45,0.66-1.16,1.25-2.14,1.77c-0.97,0.52-2.21,0.78-3.69,0.78
		c-1.45,0-2.81-0.25-4.09-0.76c-1.28-0.51-2.39-1.24-3.34-2.19c-0.95-0.95-1.7-2.09-2.26-3.42c-0.56-1.33-0.84-2.81-0.84-4.45
		c0-1.64,0.29-3.13,0.86-4.46c0.58-1.33,1.36-2.47,2.35-3.41c0.98-0.95,2.13-1.68,3.44-2.2c1.31-0.52,2.7-0.78,4.16-0.78
		c1.48,0,2.78,0.2,3.89,0.6c1.1,0.4,2.04,0.91,2.81,1.52c0.77,0.62,1.39,1.3,1.86,2.07c0.47,0.76,0.82,1.51,1.05,2.23l-4.45,1.55
		c-0.08-0.31-0.23-0.68-0.46-1.1c-0.22-0.42-0.54-0.82-0.95-1.2c-0.41-0.38-0.92-0.7-1.54-0.95c-0.61-0.26-1.35-0.38-2.21-0.38
		c-0.7,0-1.42,0.12-2.14,0.37c-0.72,0.25-1.38,0.63-1.98,1.16c-0.6,0.53-1.08,1.2-1.45,2.02c-0.37,0.82-0.56,1.81-0.56,2.96
		c0,1.09,0.17,2.05,0.5,2.87c0.33,0.82,0.79,1.51,1.36,2.05c0.58,0.55,1.24,0.96,2,1.25c0.75,0.28,1.55,0.42,2.39,0.42
		c0.86,0,1.6-0.12,2.21-0.37c0.62-0.24,1.13-0.54,1.54-0.9c0.41-0.35,0.73-0.72,0.95-1.11c0.22-0.39,0.37-0.73,0.43-1.03h-6.24
		v-3.93h10.58v11.11H59.36z"/>
	<path class="st1" d="M72.97,50.26c1.1,0,2.11,0.19,3.05,0.57c0.94,0.38,1.75,0.92,2.45,1.6c0.69,0.68,1.24,1.49,1.64,2.43
		c0.4,0.94,0.6,1.97,0.6,3.11c0,1.13-0.2,2.17-0.6,3.12c-0.4,0.95-0.95,1.76-1.64,2.45c-0.69,0.68-1.51,1.22-2.45,1.6
		c-0.94,0.38-1.95,0.57-3.05,0.57c-1.1,0-2.11-0.19-3.05-0.57c-0.94-0.38-1.75-0.91-2.45-1.6c-0.69-0.68-1.24-1.5-1.64-2.45
		c-0.4-0.95-0.6-1.99-0.6-3.12c0-1.13,0.2-2.17,0.6-3.11c0.4-0.94,0.95-1.75,1.64-2.43c0.69-0.68,1.51-1.22,2.45-1.6
		C70.86,50.45,71.87,50.26,72.97,50.26 M72.97,61.61c0.43,0,0.84-0.07,1.23-0.22c0.39-0.15,0.74-0.37,1.04-0.67
		c0.3-0.3,0.55-0.68,0.73-1.13c0.19-0.45,0.28-0.99,0.28-1.61c0-0.6-0.09-1.14-0.28-1.6c-0.19-0.46-0.43-0.84-0.73-1.13
		c-0.3-0.29-0.65-0.51-1.04-0.66c-0.39-0.15-0.8-0.22-1.23-0.22c-0.41,0-0.81,0.07-1.22,0.22c-0.4,0.15-0.75,0.37-1.05,0.66
		c-0.3,0.29-0.55,0.67-0.73,1.13c-0.18,0.46-0.28,0.99-0.28,1.6c0,0.61,0.09,1.14,0.28,1.6c0.19,0.46,0.43,0.84,0.73,1.14
		c0.3,0.3,0.65,0.53,1.05,0.67C72.15,61.53,72.56,61.61,72.97,61.61"/>
	<path class="st1" d="M83.11,65.27V44.05h4.37v8.03c0.31-0.45,0.85-0.85,1.6-1.2c0.75-0.35,1.62-0.53,2.62-0.53
		c1.05,0,2,0.19,2.84,0.57c0.84,0.38,1.55,0.91,2.12,1.58c0.58,0.67,1.02,1.48,1.33,2.4c0.31,0.93,0.47,1.94,0.47,3.03
		c0,1.11-0.17,2.14-0.51,3.08c-0.34,0.94-0.82,1.74-1.43,2.42c-0.61,0.67-1.35,1.2-2.2,1.58c-0.85,0.38-1.79,0.57-2.8,0.57
		c-0.98,0-1.82-0.19-2.54-0.56c-0.71-0.37-1.24-0.84-1.57-1.41v1.64H83.11z M94.01,57.97c0-0.6-0.09-1.14-0.26-1.6
		c-0.18-0.46-0.42-0.84-0.72-1.13c-0.3-0.29-0.66-0.51-1.06-0.66c-0.4-0.15-0.82-0.22-1.24-0.22c-0.43,0-0.85,0.07-1.25,0.22
		c-0.4,0.15-0.75,0.37-1.06,0.66c-0.3,0.29-0.55,0.67-0.73,1.13c-0.19,0.46-0.28,0.99-0.28,1.6s0.09,1.13,0.28,1.58
		c0.18,0.45,0.43,0.83,0.73,1.13c0.3,0.3,0.65,0.53,1.06,0.69c0.4,0.16,0.81,0.24,1.25,0.24c0.43,0,0.84-0.07,1.24-0.22
		c0.4-0.15,0.75-0.37,1.06-0.67c0.3-0.3,0.54-0.68,0.72-1.14C93.93,59.11,94.01,58.58,94.01,57.97"/>
	<path class="st1" d="M100.43,46.25c0-0.35,0.07-0.69,0.21-1.01c0.14-0.32,0.32-0.6,0.56-0.83c0.23-0.24,0.51-0.42,0.82-0.56
		c0.31-0.14,0.64-0.2,1-0.2c0.74,0,1.37,0.25,1.88,0.76c0.51,0.51,0.76,1.12,0.76,1.85c0,0.72-0.26,1.34-0.76,1.85
		c-0.51,0.51-1.13,0.76-1.88,0.76c-0.35,0-0.68-0.07-1-0.21c-0.31-0.14-0.59-0.32-0.82-0.56c-0.23-0.24-0.42-0.51-0.56-0.84
		C100.5,46.94,100.43,46.6,100.43,46.25 M100.82,50.7h4.46v14.57h-4.46V50.7z"/>
	<path class="st1" d="M121.92,61.08c-0.18,0.62-0.45,1.22-0.82,1.79c-0.37,0.57-0.84,1.06-1.41,1.48c-0.57,0.42-1.22,0.75-1.98,1
		c-0.75,0.24-1.59,0.37-2.51,0.37c-1,0-1.95-0.18-2.87-0.53c-0.92-0.35-1.73-0.86-2.43-1.52c-0.7-0.66-1.26-1.48-1.67-2.43
		c-0.41-0.96-0.62-2.05-0.62-3.28c0-1.17,0.2-2.23,0.6-3.18c0.4-0.95,0.94-1.75,1.61-2.42c0.67-0.66,1.45-1.18,2.33-1.54
		c0.88-0.36,1.79-0.54,2.73-0.54c2.27,0,4.05,0.65,5.35,1.96c1.3,1.31,1.95,3.15,1.95,5.51c0,0.31-0.01,0.61-0.03,0.89
		c-0.02,0.28-0.04,0.44-0.06,0.48h-10.14c0.02,0.41,0.12,0.79,0.31,1.13c0.18,0.34,0.43,0.64,0.73,0.9c0.3,0.25,0.65,0.45,1.04,0.59
		c0.39,0.14,0.8,0.21,1.23,0.21c0.82,0,1.46-0.17,1.92-0.53c0.46-0.35,0.8-0.81,1.01-1.38L121.92,61.08z M117.88,56.24
		c-0.02-0.27-0.08-0.56-0.19-0.85c-0.11-0.29-0.28-0.56-0.51-0.79c-0.23-0.23-0.53-0.43-0.89-0.59c-0.36-0.16-0.8-0.23-1.33-0.23
		c-0.47,0-0.88,0.08-1.23,0.23c-0.35,0.16-0.65,0.35-0.89,0.59c-0.24,0.24-0.43,0.5-0.56,0.79c-0.13,0.29-0.2,0.58-0.22,0.85H117.88
		z"/>
	<path class="st1" d="M133.88,55.1c-0.25-0.06-0.5-0.1-0.73-0.12c-0.24-0.02-0.46-0.03-0.67-0.03c-0.45,0-0.88,0.07-1.29,0.21
		c-0.41,0.14-0.77,0.36-1.08,0.67c-0.31,0.31-0.56,0.72-0.75,1.23c-0.19,0.51-0.28,1.12-0.28,1.85v6.36h-4.45V50.7h4.31v1.96
		c0.19-0.41,0.44-0.75,0.75-1.03c0.3-0.27,0.63-0.49,0.98-0.65c0.35-0.16,0.71-0.27,1.07-0.34c0.36-0.07,0.69-0.1,0.98-0.1
		c0.45,0,0.84,0.05,1.17,0.15V55.1z"/>
	<path class="st1" d="M140.3,65.27h-4.46V50.7h4.31v1.67c0.2-0.35,0.45-0.65,0.76-0.91c0.31-0.25,0.65-0.46,1.01-0.63
		c0.36-0.17,0.74-0.29,1.14-0.38c0.4-0.09,0.79-0.13,1.16-0.13c0.92,0,1.71,0.15,2.37,0.45c0.66,0.3,1.22,0.72,1.65,1.25
		c0.44,0.53,0.76,1.15,0.97,1.85c0.2,0.7,0.31,1.46,0.31,2.26v9.15h-4.46v-8.38c0-0.72-0.19-1.32-0.57-1.8
		c-0.38-0.48-0.98-0.72-1.8-0.72c-0.74,0-1.33,0.24-1.76,0.72c-0.43,0.48-0.65,1.09-0.65,1.83V65.27z"/>
	<path class="st1" d="M159.48,50.26c1.09,0,2.11,0.19,3.05,0.57c0.94,0.38,1.75,0.92,2.45,1.6c0.69,0.68,1.24,1.49,1.64,2.43
		c0.4,0.94,0.6,1.97,0.6,3.11c0,1.13-0.2,2.17-0.6,3.12c-0.4,0.95-0.95,1.76-1.64,2.45c-0.69,0.68-1.51,1.22-2.45,1.6
		c-0.94,0.38-1.95,0.57-3.05,0.57c-1.1,0-2.11-0.19-3.05-0.57c-0.94-0.38-1.75-0.91-2.45-1.6c-0.69-0.68-1.24-1.5-1.64-2.45
		c-0.4-0.95-0.6-1.99-0.6-3.12c0-1.13,0.2-2.17,0.6-3.11c0.4-0.94,0.95-1.75,1.64-2.43c0.69-0.68,1.51-1.22,2.45-1.6
		C157.37,50.45,158.38,50.26,159.48,50.26 M159.48,61.61c0.43,0,0.84-0.07,1.23-0.22c0.39-0.15,0.74-0.37,1.04-0.67
		c0.3-0.3,0.55-0.68,0.73-1.13c0.19-0.45,0.28-0.99,0.28-1.61c0-0.6-0.09-1.14-0.28-1.6c-0.19-0.46-0.43-0.84-0.73-1.13
		c-0.3-0.29-0.65-0.51-1.04-0.66c-0.39-0.15-0.8-0.22-1.23-0.22c-0.41,0-0.82,0.07-1.22,0.22c-0.4,0.15-0.75,0.37-1.05,0.66
		c-0.3,0.29-0.55,0.67-0.74,1.13c-0.18,0.46-0.28,0.99-0.28,1.6c0,0.61,0.09,1.14,0.28,1.6c0.19,0.46,0.43,0.84,0.74,1.14
		c0.3,0.3,0.65,0.53,1.05,0.67C158.66,61.53,159.07,61.61,159.48,61.61"/>
	<path class="st1" d="M68.98,81.15c0,0.31,0.01,0.56,0.02,0.78c0.01,0.21,0.03,0.35,0.03,0.42h-1.97c-0.01-0.04-0.02-0.13-0.04-0.25
		c-0.01-0.13-0.02-0.26-0.02-0.39c-0.15,0.23-0.39,0.42-0.71,0.57c-0.32,0.15-0.68,0.22-1.08,0.22c-0.48,0-0.92-0.09-1.32-0.26
		c-0.41-0.17-0.75-0.42-1.05-0.73c-0.3-0.31-0.53-0.68-0.69-1.11c-0.17-0.43-0.25-0.9-0.25-1.41c0-0.49,0.08-0.95,0.24-1.38
		c0.16-0.43,0.38-0.8,0.67-1.11c0.29-0.31,0.63-0.56,1.02-0.73c0.4-0.18,0.83-0.26,1.31-0.26c0.29,0,0.53,0.02,0.74,0.07
		c0.21,0.05,0.38,0.11,0.52,0.18c0.14,0.07,0.26,0.14,0.34,0.22c0.09,0.08,0.15,0.15,0.2,0.22V72.6h2.02V81.15z M63.96,79
		c0,0.28,0.04,0.52,0.12,0.73c0.08,0.21,0.19,0.38,0.33,0.52c0.14,0.14,0.3,0.24,0.49,0.32c0.18,0.07,0.38,0.11,0.57,0.11
		c0.2,0,0.39-0.03,0.57-0.11c0.19-0.07,0.35-0.18,0.49-0.32c0.14-0.14,0.25-0.31,0.33-0.52c0.08-0.21,0.12-0.45,0.12-0.73
		s-0.04-0.52-0.12-0.73c-0.08-0.21-0.19-0.38-0.33-0.52c-0.14-0.14-0.3-0.24-0.49-0.31c-0.18-0.07-0.38-0.1-0.57-0.1
		c-0.2,0-0.39,0.03-0.57,0.1c-0.18,0.07-0.35,0.17-0.49,0.31s-0.25,0.31-0.33,0.52C64,78.48,63.96,78.72,63.96,79"/>
	<path class="st1" d="M76.67,80.42c-0.08,0.29-0.21,0.56-0.38,0.82c-0.17,0.26-0.38,0.49-0.65,0.68c-0.26,0.19-0.56,0.35-0.91,0.46
		c-0.35,0.11-0.73,0.17-1.15,0.17c-0.46,0-0.9-0.08-1.32-0.24c-0.42-0.16-0.8-0.39-1.12-0.7c-0.32-0.31-0.58-0.68-0.77-1.12
		c-0.19-0.44-0.28-0.94-0.28-1.51c0-0.54,0.09-1.03,0.28-1.46c0.18-0.44,0.43-0.81,0.74-1.11c0.31-0.31,0.67-0.54,1.07-0.71
		c0.4-0.17,0.82-0.25,1.25-0.25c1.04,0,1.86,0.3,2.46,0.9c0.6,0.6,0.9,1.45,0.9,2.53c0,0.14,0,0.28-0.01,0.41
		c-0.01,0.13-0.02,0.2-0.03,0.22h-4.66c0.01,0.19,0.06,0.36,0.14,0.52c0.09,0.16,0.2,0.29,0.34,0.41c0.14,0.12,0.3,0.21,0.48,0.27
		c0.18,0.06,0.37,0.1,0.57,0.1c0.38,0,0.67-0.08,0.88-0.24c0.21-0.16,0.37-0.37,0.46-0.63L76.67,80.42z M74.81,78.2
		c-0.01-0.13-0.04-0.26-0.09-0.39c-0.05-0.13-0.13-0.26-0.23-0.36c-0.11-0.11-0.25-0.2-0.41-0.27c-0.17-0.07-0.37-0.11-0.61-0.11
		c-0.21,0-0.4,0.04-0.57,0.11c-0.16,0.07-0.3,0.16-0.41,0.27c-0.11,0.11-0.2,0.23-0.26,0.36c-0.06,0.13-0.09,0.26-0.1,0.39H74.81z"
		/>
	<rect x="77.88" y="72.6" class="st1" width="2.05" height="9.75"/>
	<polygon class="st1" points="85.47,82.35 85.47,69.75 93.45,69.75 93.45,72.39 88.28,72.39 88.28,74.79 92.97,74.79 92.97,77.27 
		88.28,77.27 88.28,79.68 93.47,79.68 93.47,82.35 	"/>
	<path class="st1" d="M97.79,82.35h-2.7v-8.84h2.61v1.01c0.12-0.21,0.27-0.4,0.46-0.55c0.19-0.15,0.39-0.28,0.61-0.38
		c0.22-0.1,0.45-0.18,0.69-0.23c0.24-0.05,0.48-0.08,0.7-0.08c0.56,0,1.04,0.09,1.44,0.28c0.4,0.18,0.74,0.44,1,0.76
		c0.27,0.32,0.46,0.69,0.59,1.12s0.19,0.88,0.19,1.37v5.55h-2.7v-5.08c0-0.44-0.12-0.8-0.34-1.09c-0.23-0.29-0.6-0.43-1.09-0.43
		c-0.45,0-0.81,0.14-1.07,0.43c-0.26,0.29-0.39,0.66-0.39,1.11V82.35z"/>
	<path class="st1" d="M109.49,75.74c-0.28,0-0.55,0.05-0.79,0.14c-0.24,0.09-0.46,0.24-0.64,0.43c-0.18,0.19-0.33,0.42-0.44,0.69
		c-0.11,0.27-0.16,0.59-0.16,0.94c0,0.36,0.05,0.67,0.17,0.93c0.11,0.27,0.26,0.5,0.44,0.68c0.18,0.19,0.4,0.33,0.65,0.43
		c0.25,0.1,0.52,0.14,0.8,0.14c0.52,0,0.94-0.14,1.24-0.41c0.3-0.27,0.5-0.57,0.6-0.91l2.38,0.73c-0.09,0.39-0.26,0.77-0.49,1.14
		c-0.23,0.37-0.53,0.69-0.88,0.98c-0.36,0.28-0.77,0.52-1.24,0.69c-0.48,0.18-1.01,0.27-1.6,0.27c-0.66,0-1.28-0.12-1.86-0.35
		c-0.58-0.23-1.08-0.55-1.5-0.97c-0.43-0.42-0.77-0.91-1.01-1.47c-0.25-0.57-0.37-1.2-0.37-1.89c0-0.69,0.12-1.32,0.36-1.89
		c0.24-0.58,0.58-1.07,1-1.49c0.42-0.42,0.91-0.74,1.48-0.97c0.56-0.23,1.17-0.35,1.82-0.35c0.61,0,1.15,0.09,1.64,0.26
		c0.49,0.17,0.91,0.4,1.26,0.68c0.35,0.28,0.64,0.61,0.87,0.99c0.22,0.37,0.39,0.76,0.48,1.15l-2.42,0.73
		c-0.05-0.17-0.12-0.33-0.21-0.49c-0.09-0.16-0.21-0.3-0.36-0.43c-0.14-0.12-0.31-0.22-0.52-0.29
		C109.98,75.77,109.75,75.74,109.49,75.74"/>
	<path class="st1" d="M120.74,82.35c-0.02-0.08-0.04-0.22-0.05-0.42c-0.01-0.2-0.02-0.35-0.02-0.47c-0.24,0.38-0.58,0.65-1.02,0.83
		c-0.44,0.17-0.89,0.26-1.34,0.26c-0.53,0-1.01-0.09-1.43-0.28c-0.42-0.18-0.78-0.43-1.06-0.75c-0.28-0.31-0.5-0.68-0.65-1.09
		c-0.15-0.42-0.22-0.86-0.22-1.33v-5.58h2.7v5.01c0,0.43,0.12,0.79,0.35,1.08c0.23,0.3,0.59,0.44,1.08,0.44
		c0.45,0,0.81-0.14,1.08-0.42c0.27-0.28,0.4-0.64,0.4-1.09v-5.03h2.7v7.25c0,0.4,0.01,0.75,0.03,1.04c0.02,0.29,0.04,0.47,0.05,0.54
		H120.74z"/>
	<path class="st1" d="M133.4,79.81c-0.1,0.38-0.27,0.74-0.5,1.08c-0.23,0.34-0.51,0.64-0.85,0.9c-0.34,0.25-0.75,0.46-1.2,0.61
		c-0.46,0.15-0.96,0.22-1.52,0.22c-0.61,0-1.19-0.11-1.74-0.32c-0.56-0.21-1.05-0.52-1.48-0.92c-0.43-0.4-0.77-0.89-1.01-1.47
		c-0.25-0.58-0.37-1.25-0.37-1.99c0-0.71,0.12-1.35,0.37-1.93c0.24-0.57,0.57-1.06,0.98-1.47c0.41-0.4,0.88-0.71,1.41-0.93
		c0.53-0.22,1.08-0.33,1.65-0.33c1.38,0,2.46,0.4,3.25,1.19c0.79,0.79,1.18,1.91,1.18,3.34c0,0.19-0.01,0.37-0.02,0.54
		c-0.01,0.17-0.03,0.27-0.04,0.29h-6.15c0.01,0.25,0.07,0.48,0.19,0.69c0.11,0.21,0.26,0.39,0.44,0.54c0.18,0.15,0.4,0.27,0.63,0.35
		c0.24,0.08,0.48,0.12,0.75,0.12c0.5,0,0.89-0.11,1.16-0.32c0.28-0.21,0.48-0.49,0.61-0.84L133.4,79.81z M130.94,76.88
		c-0.01-0.17-0.05-0.34-0.11-0.52c-0.07-0.18-0.17-0.34-0.31-0.48c-0.14-0.14-0.32-0.26-0.54-0.36c-0.22-0.09-0.49-0.14-0.81-0.14
		c-0.29,0-0.54,0.05-0.75,0.14c-0.21,0.09-0.4,0.21-0.54,0.36c-0.15,0.14-0.26,0.3-0.34,0.48c-0.08,0.18-0.12,0.35-0.14,0.52H130.94
		z"/>
	<path class="st1" d="M137.74,82.35h-2.7v-8.84h2.61v1.01c0.12-0.21,0.27-0.4,0.46-0.55c0.19-0.15,0.4-0.28,0.61-0.38
		c0.22-0.1,0.45-0.18,0.69-0.23c0.24-0.05,0.47-0.08,0.7-0.08c0.56,0,1.04,0.09,1.44,0.28c0.4,0.18,0.74,0.44,1.01,0.76
		c0.27,0.32,0.46,0.69,0.59,1.12c0.12,0.43,0.19,0.88,0.19,1.37v5.55h-2.7v-5.08c0-0.44-0.12-0.8-0.35-1.09
		c-0.23-0.29-0.6-0.43-1.09-0.43c-0.45,0-0.81,0.14-1.06,0.43c-0.26,0.29-0.39,0.66-0.39,1.11V82.35z"/>
	<path class="st1" d="M148.58,73.51h1.73v2.36h-1.73v3.31c0,0.37,0.09,0.61,0.27,0.74c0.18,0.12,0.41,0.19,0.71,0.19
		c0.14,0,0.27-0.01,0.4-0.03c0.12-0.02,0.23-0.04,0.31-0.06v2.24c-0.06,0.02-0.2,0.07-0.42,0.14c-0.23,0.07-0.55,0.11-0.98,0.11
		c-0.92,0-1.65-0.25-2.17-0.76c-0.52-0.5-0.78-1.2-0.78-2.09v-3.79h-1.56v-2.36h0.44c0.46,0,0.81-0.14,1.03-0.41
		c0.23-0.27,0.34-0.61,0.34-1.03v-1.14h2.42V73.51z"/>
	<path class="st1" d="M157.4,76.18c-0.15-0.04-0.3-0.06-0.44-0.07c-0.14-0.01-0.28-0.02-0.41-0.02c-0.27,0-0.53,0.04-0.78,0.12
		c-0.25,0.08-0.47,0.22-0.66,0.41c-0.19,0.19-0.34,0.44-0.45,0.75c-0.11,0.31-0.17,0.68-0.17,1.12v3.86h-2.7v-8.84h2.61v1.19
		c0.12-0.25,0.27-0.46,0.45-0.62c0.18-0.17,0.38-0.3,0.6-0.39c0.21-0.1,0.43-0.16,0.65-0.2c0.22-0.04,0.42-0.06,0.6-0.06
		c0.27,0,0.51,0.03,0.71,0.09V76.18z"/>
	<path class="st1" d="M162.68,73.25c0.66,0,1.28,0.11,1.85,0.35c0.57,0.23,1.06,0.55,1.48,0.97c0.42,0.41,0.75,0.91,1,1.47
		c0.24,0.57,0.36,1.2,0.36,1.88c0,0.69-0.12,1.32-0.36,1.89c-0.24,0.58-0.58,1.07-1,1.49c-0.42,0.42-0.92,0.74-1.48,0.97
		c-0.57,0.23-1.19,0.35-1.85,0.35c-0.66,0-1.28-0.11-1.85-0.35c-0.57-0.23-1.06-0.55-1.48-0.97c-0.42-0.42-0.75-0.91-1-1.49
		c-0.24-0.58-0.36-1.21-0.36-1.89c0-0.69,0.12-1.32,0.36-1.88c0.24-0.57,0.58-1.06,1-1.47c0.42-0.42,0.91-0.74,1.48-0.97
		C161.4,73.36,162.02,73.25,162.68,73.25 M162.68,80.13c0.26,0,0.51-0.05,0.75-0.14c0.24-0.09,0.45-0.22,0.63-0.41
		c0.18-0.18,0.33-0.41,0.45-0.68c0.11-0.27,0.17-0.6,0.17-0.98c0-0.37-0.05-0.69-0.17-0.97c-0.11-0.28-0.26-0.51-0.45-0.68
		c-0.18-0.18-0.4-0.31-0.63-0.4c-0.24-0.09-0.49-0.13-0.75-0.13c-0.25,0-0.5,0.04-0.74,0.13c-0.24,0.09-0.46,0.22-0.64,0.4
		c-0.18,0.18-0.33,0.41-0.44,0.68c-0.11,0.28-0.17,0.6-0.17,0.97c0,0.37,0.05,0.69,0.17,0.97c0.11,0.28,0.26,0.51,0.44,0.69
		c0.18,0.18,0.4,0.32,0.64,0.41C162.18,80.08,162.43,80.13,162.68,80.13"/>
</g>
<g>
	<path class="st1" d="M219.64,62.32v-9h3.55c1.05,0,1.88,0.27,2.5,0.82s0.93,1.28,0.93,2.19v0.03c0,0.97-0.34,1.72-1.02,2.26
		c-0.68,0.54-1.54,0.81-2.58,0.81h-1.79v2.89H219.64z M221.23,58h1.84c0.59,0,1.06-0.15,1.42-0.45c0.35-0.3,0.53-0.69,0.53-1.16
		v-0.03c0-0.51-0.17-0.91-0.52-1.19c-0.35-0.28-0.82-0.42-1.42-0.42h-1.84V58z"/>
	<path class="st1" d="M227.99,62.32v-9h4.01c1.12,0,1.98,0.3,2.6,0.9c0.5,0.51,0.75,1.16,0.75,1.94v0.03c0,0.71-0.19,1.3-0.58,1.76
		c-0.38,0.46-0.9,0.78-1.56,0.97l2.43,3.41h-1.88l-2.21-3.14h-1.98v3.14H227.99z M229.58,57.78h2.32c0.57,0,1.02-0.14,1.35-0.41
		c0.34-0.27,0.5-0.64,0.5-1.09v-0.03c0-0.48-0.16-0.85-0.49-1.11c-0.33-0.26-0.79-0.39-1.38-0.39h-2.3V57.78z"/>
	<path class="st1" d="M237.06,62.32v-9h6.68v1.42h-5.09v2.34h4.52v1.43h-4.52v2.41h5.16v1.42H237.06z"/>
	<path class="st1" d="M248.6,62.45c-1.43,0-2.69-0.48-3.76-1.44l0.95-1.13c0.9,0.78,1.85,1.17,2.84,1.17c0.49,0,0.88-0.11,1.16-0.32
		s0.43-0.48,0.43-0.82v-0.03c0-0.33-0.14-0.6-0.41-0.8c-0.28-0.2-0.82-0.39-1.62-0.58c-0.52-0.13-0.94-0.26-1.29-0.39
		c-0.34-0.13-0.65-0.3-0.93-0.5c-0.28-0.21-0.47-0.46-0.6-0.75c-0.12-0.3-0.19-0.65-0.19-1.05V55.8c0-0.77,0.29-1.4,0.86-1.88
		s1.31-0.73,2.21-0.73c1.23,0,2.32,0.38,3.27,1.13l-0.85,1.2c-0.83-0.62-1.65-0.93-2.44-0.93c-0.45,0-0.8,0.1-1.07,0.3
		c-0.27,0.2-0.4,0.46-0.4,0.77v0.03c0,0.35,0.14,0.62,0.43,0.82s0.86,0.39,1.72,0.6c0.99,0.24,1.72,0.56,2.19,0.96
		s0.7,0.96,0.7,1.68v0.03c0,0.83-0.3,1.49-0.89,1.97S249.56,62.45,248.6,62.45z"/>
	<path class="st1" d="M253.53,62.32v-9h1.58v9H253.53z"/>
	<path class="st1" d="M257.29,62.32v-9h3.36c1.4,0,2.54,0.43,3.44,1.28c0.89,0.85,1.34,1.92,1.34,3.2v0.03
		c0,1.29-0.45,2.36-1.34,3.22c-0.9,0.86-2.04,1.29-3.44,1.29H257.29z M260.64,54.75h-1.78v6.12h1.78c0.93,0,1.69-0.28,2.26-0.85
		s0.86-1.29,0.86-2.19v-0.03c0-0.89-0.29-1.62-0.86-2.2C262.33,55.04,261.58,54.75,260.64,54.75z"/>
</g>
<g>
	<path class="st1" d="M267.06,62.32v-9h6.68v1.42h-5.1v2.34h4.52v1.43h-4.52v2.41h5.16v1.42H267.06z"/>
	<path class="st1" d="M275.43,62.32v-9h1.46l4.82,6.23v-6.23h1.56v9h-1.32l-4.96-6.41v6.41H275.43z"/>
</g>
<g>
	<path class="st1" d="M287.53,62.32v-7.54h-2.87v-1.47h7.32v1.47h-2.87v7.54H287.53z"/>
</g>
<g>
	<path class="st1" d="M293.42,62.32v-9h6.68v1.42h-5.1v2.34h4.52v1.43h-4.52v2.41h5.16v1.42H293.42z"/>
</g>
<g>
	<path class="st1" d="M202.92,51.1c-1.39,0-2.51-0.44-3.38-1.32c-0.86-0.88-1.29-1.98-1.29-3.31v-0.03c0-1.29,0.44-2.38,1.32-3.29
		c0.88-0.91,1.99-1.36,3.32-1.36c0.76,0,1.4,0.1,1.93,0.3s1.04,0.51,1.53,0.92l-1,1.2c-0.38-0.32-0.77-0.55-1.15-0.71
		c-0.38-0.16-0.84-0.24-1.37-0.24c-0.82,0-1.52,0.31-2.08,0.93c-0.56,0.62-0.84,1.36-0.84,2.24v0.03c0,0.94,0.28,1.71,0.85,2.31
		s1.3,0.91,2.21,0.91c0.84,0,1.56-0.23,2.17-0.68V47.3h-2.3v-1.39h3.83v3.78C205.59,50.63,204.34,51.1,202.92,51.1z"/>
	<path class="st1" d="M212.43,51.09c-1.19,0-2.13-0.34-2.81-1.02c-0.68-0.68-1.02-1.66-1.02-2.95v-5.18h1.58v5.12
		c0,0.82,0.2,1.46,0.6,1.9c0.4,0.44,0.96,0.66,1.68,0.66c0.71,0,1.27-0.21,1.67-0.64s0.6-1.04,0.6-1.86v-5.18h1.58v5.11
		c0,1.31-0.34,2.31-1.03,3C214.58,50.74,213.64,51.09,212.43,51.09z"/>
	<path class="st1" d="M218.56,50.95v-9h1.58v9H218.56z"/>
	<path class="st1" d="M222.55,50.95v-9h1.58v7.56h4.73v1.44H222.55z"/>
	<path class="st1" d="M230.25,50.95v-9h1.58v7.56h4.73v1.44H230.25z"/>
	<path class="st1" d="M238.19,50.95v-9h6.68v1.42h-5.1v2.34h4.52v1.43h-4.52v2.41h5.16v1.42H238.19z"/>
	<path class="st1" d="M246.58,50.95v-9h4.01c1.11,0,1.98,0.3,2.6,0.9c0.5,0.51,0.75,1.16,0.75,1.94v0.03c0,0.71-0.19,1.3-0.58,1.76
		c-0.39,0.46-0.91,0.78-1.56,0.97l2.43,3.41h-1.88l-2.21-3.14h-1.98v3.14H246.58z M248.17,46.4h2.31c0.57,0,1.02-0.14,1.35-0.41
		s0.5-0.64,0.5-1.09v-0.03c0-0.48-0.16-0.85-0.49-1.11c-0.33-0.26-0.79-0.39-1.38-0.39h-2.3V46.4z"/>
	<path class="st1" d="M255.88,50.95v-9h1.69l2.74,4.26l2.74-4.26h1.69v9h-1.58v-6.46l-2.84,4.25h-0.05l-2.82-4.22v6.43H255.88z"/>
	<path class="st1" d="M274.73,49.74c-0.89,0.91-2.02,1.36-3.38,1.36s-2.49-0.45-3.37-1.35c-0.88-0.9-1.32-1.99-1.32-3.28v-0.03
		c0-1.29,0.45-2.38,1.34-3.29s2.02-1.36,3.38-1.36s2.49,0.45,3.37,1.35s1.32,1.99,1.32,3.28v0.03
		C276.07,47.73,275.62,48.83,274.73,49.74z M269.18,48.71c0.58,0.62,1.31,0.93,2.19,0.93s1.61-0.3,2.18-0.91s0.86-1.36,0.86-2.25
		v-0.03c0-0.89-0.29-1.65-0.87-2.26c-0.58-0.62-1.31-0.93-2.19-0.93s-1.61,0.3-2.18,0.91c-0.57,0.61-0.86,1.36-0.86,2.25v0.03
		C268.31,47.34,268.6,48.09,269.18,48.71z"/>
	<path class="st1" d="M281.59,50.95v-9h1.58v7.56h4.73v1.44H281.59z"/>
	<path class="st1" d="M288.77,50.95l3.96-9.07h1.47l3.96,9.07h-1.67l-0.91-2.17h-4.26l-0.93,2.17H288.77z M291.89,47.37h3.1
		l-1.56-3.6L291.89,47.37z"/>
	<path class="st1" d="M302.48,51.07c-1.43,0-2.69-0.48-3.76-1.44l0.95-1.13c0.9,0.78,1.85,1.17,2.84,1.17
		c0.49,0,0.88-0.11,1.16-0.32s0.43-0.48,0.43-0.82v-0.03c0-0.33-0.14-0.6-0.41-0.8c-0.28-0.2-0.82-0.39-1.62-0.58
		c-0.52-0.13-0.94-0.26-1.29-0.39c-0.34-0.13-0.65-0.3-0.93-0.5c-0.28-0.21-0.47-0.46-0.6-0.75c-0.12-0.3-0.19-0.65-0.19-1.05v-0.03
		c0-0.77,0.29-1.4,0.86-1.88s1.31-0.73,2.21-0.73c1.23,0,2.32,0.38,3.27,1.13l-0.85,1.2c-0.83-0.62-1.65-0.93-2.44-0.93
		c-0.45,0-0.8,0.1-1.07,0.3c-0.27,0.2-0.4,0.46-0.4,0.77v0.03c0,0.35,0.14,0.62,0.43,0.82s0.86,0.39,1.72,0.6
		c0.99,0.24,1.72,0.56,2.19,0.96s0.7,0.96,0.7,1.68v0.03c0,0.83-0.3,1.49-0.89,1.97S303.44,51.07,302.48,51.07z"/>
	<path class="st1" d="M310.71,51.07c-1.43,0-2.68-0.48-3.76-1.44l0.95-1.13c0.9,0.78,1.85,1.17,2.84,1.17
		c0.49,0,0.88-0.11,1.16-0.32s0.43-0.48,0.43-0.82v-0.03c0-0.33-0.14-0.6-0.41-0.8c-0.28-0.2-0.81-0.39-1.62-0.58
		c-0.51-0.13-0.94-0.26-1.29-0.39c-0.34-0.13-0.65-0.3-0.93-0.5c-0.27-0.21-0.47-0.46-0.6-0.75s-0.19-0.65-0.19-1.05v-0.03
		c0-0.77,0.29-1.4,0.86-1.88c0.57-0.48,1.31-0.73,2.21-0.73c1.23,0,2.32,0.38,3.27,1.13l-0.85,1.2c-0.83-0.62-1.65-0.93-2.45-0.93
		c-0.45,0-0.8,0.1-1.07,0.3c-0.27,0.2-0.4,0.46-0.4,0.77v0.03c0,0.35,0.14,0.62,0.43,0.82s0.86,0.39,1.72,0.6
		c0.99,0.24,1.72,0.56,2.19,0.96s0.7,0.96,0.7,1.68v0.03c0,0.83-0.29,1.49-0.89,1.97S311.67,51.07,310.71,51.07z"/>
	<path class="st1" d="M323.47,49.74c-0.89,0.91-2.02,1.36-3.38,1.36s-2.49-0.45-3.37-1.35c-0.88-0.9-1.32-1.99-1.32-3.28v-0.03
		c0-1.29,0.45-2.38,1.34-3.29s2.02-1.36,3.38-1.36s2.49,0.45,3.37,1.35s1.32,1.99,1.32,3.28v0.03
		C324.81,47.73,324.37,48.83,323.47,49.74z M317.92,48.71c0.58,0.62,1.31,0.93,2.19,0.93s1.61-0.3,2.18-0.91s0.86-1.36,0.86-2.25
		v-0.03c0-0.89-0.29-1.65-0.87-2.26c-0.58-0.62-1.31-0.93-2.19-0.93s-1.61,0.3-2.18,0.91c-0.57,0.61-0.86,1.36-0.86,2.25v0.03
		C317.06,47.34,317.35,48.09,317.92,48.71z"/>
</g>
<rect x="182.22" y="15.45" class="st8" width="0.94" height="71.98"/>
<rect x="182.22" y="50.95" class="st1" width="0.94" height="36.48"/>
<rect x="182.22" y="68.66" class="st9" width="0.94" height="18.77"/>
</svg>
