<?xml version="1.0" encoding="UTF-8"?>
<svg id="Capa_1" data-name="Capa 1" xmlns="http://www.w3.org/2000/svg" xmlns:xlink="http://www.w3.org/1999/xlink" viewBox="0 0 800 537.04">
  <defs>
    <style>
      .cls-1, .cls-2 {
        fill: none;
      }

      .cls-3 {
        clip-path: url(#clippath);
      }

      .cls-2 {
        stroke: #f3a800;
        stroke-miterlimit: 10;
        stroke-width: 5px;
      }
    </style>
    <clipPath id="clippath">
      <path class="cls-1" d="M672.6,85.45s-.42-12.82,0-30.18c.66-27.05-4.8-58.58-6.85-57.56-2.04,1.02-92.13,.64-162.47,.19l-17.88,6.79-64.68-7.4-68.04,14.81-90.11,52.11-11.32,6.57-46.24,66.08-1.4,21.23-76.28,147.81,8.57,56.07,68.78,42.1,9.83,1.49,199.68,119.96,55.14,40.53,30.18,16.47,14.16-33.53,21.76-14.64,94.85-50.74,6.71-93.88-67.06-26.82s-98.91,20.12-103.94,18.44c-5.03-1.68-38.56-38.56-38.56-38.56l-30.27-68.92-35.11-11.18-22.35-20.86,20.32-14.08,84.17-47.58,106.73-65.24,121.68-29.48Z"/>
    </clipPath>
  </defs>
  <g class="cls-3">
    <polygon class="cls-2" points="397.55 56.17 342.64 24.47 287.73 56.17 287.73 119.57 342.64 151.28 397.55 119.57 397.55 56.17"/>
    <polygon class="cls-2" points="327.36 177.75 272.45 146.05 217.54 177.75 217.54 241.16 272.45 272.86 327.36 241.16 327.36 177.75"/>
    <polygon class="cls-2" points="259.35 295.54 204.44 263.84 149.53 295.54 149.53 358.95 204.44 390.65 259.35 358.95 259.35 295.54"/>
    <polygon class="cls-2" points="466.16 414.94 411.25 383.24 356.34 414.94 356.34 478.35 411.25 510.05 466.16 478.35 466.16 414.94"/>
    <polygon class="cls-2" points="397.55 295.54 342.64 263.84 287.73 295.54 287.73 358.95 342.64 390.65 397.55 358.95 397.55 295.54"/>
    <polygon class="cls-2" points="533.58 56.17 478.67 24.47 423.76 56.17 423.76 119.57 478.67 151.28 533.58 119.57 533.58 56.17"/>
    <polygon class="cls-2" points="604.36 414.94 549.45 383.24 494.54 414.94 494.54 478.35 549.45 510.05 604.36 478.35 604.36 414.94"/>
    <polygon class="cls-2" points="463.38 177.75 408.47 146.05 353.56 177.75 353.56 241.16 463.38 177.75"/>
    <polygon class="cls-2" points="328.62 414.94 273.71 383.24 218.8 414.94 218.8 478.35 273.71 510.05 328.62 478.35 328.62 414.94"/>
    <polygon class="cls-2" points="535.42 534.34 480.51 502.64 425.6 534.34 425.6 597.75 480.51 629.45 535.42 597.75 535.42 534.34"/>
    <polygon class="cls-2" points="259.35 56.17 204.44 24.47 149.53 56.17 149.53 119.57 204.44 151.28 259.35 119.57 259.35 56.17"/>
    <polygon class="cls-2" points="604.36 -62.66 549.45 -94.36 494.54 -62.66 494.54 .74 549.45 32.45 604.36 .74 604.36 -62.66"/>
    <polygon class="cls-2" points="665.48 56.17 610.57 24.47 555.66 56.17 555.66 119.57 610.57 151.28 665.48 119.57 665.48 56.17"/>
  </g>
</svg>