<?xml version="1.0" encoding="UTF-8"?>
<svg id="Capa_1" data-name="Capa 1" xmlns="http://www.w3.org/2000/svg" xmlns:xlink="http://www.w3.org/1999/xlink" viewBox="0 0 800 537.04">
  <defs>
    <style>
      .cls-1 {
        fill: none;
      }

      .cls-2 {
        clip-path: url(#clippath);
      }

      .cls-3 {
        fill: #f0bb08;
      }

      .cls-4 {
        fill: #de2125;
      }

      .cls-5 {
        fill: #252d58;
      }
    </style>
    <clipPath id="clippath">
      <rect class="cls-1" y="2.62" width="573.26" height="534.43"/>
    </clipPath>
  </defs>
  <g class="cls-2">
    <path class="cls-3" d="M104.95,29.96c9.45,6.33,17.11,15.34,21.76,26.25l169.67,396.3c13.02,30.42-1.1,65.63-31.58,78.65-30.47,13.02-65.66-1.11-78.72-31.56l-238.67-2.71c-13.72,30.1-49.29,43.42-79.45,29.69-30.3-13.76-43.47-49.25-29.75-79.35L16.94,54.94c9.85-21.6,31.54-35.37,55.3-35.09,11.91,.13,23.23,3.77,32.71,10.11"/>
    <path class="cls-5" d="M369.97,171.88c6.44,10.27,9.95,22.39,9.72,35.03l-7.82,459.63c-.61,35.28-29.72,63.41-65.08,62.8-35.34-.59-63.42-29.67-62.84-65L12.83,557.77c-26.49,23.33-66.92,20.8-90.29-5.7-23.48-26.59-20.81-66.87,5.67-90.19L273.41,157.87c19.02-16.73,46.14-20.69,69.14-10.08,11.53,5.32,20.97,13.79,27.43,24.09"/>
    <path class="cls-4" d="M565.29,366.84c2.36,11.12,1.56,22.91-2.73,33.98l-155,402.25c-11.9,30.88-46.6,46.29-77.54,34.38-30.93-11.88-46.29-46.53-34.39-77.44l-169.19-168.18c-30.84,12.02-65.64-3.2-77.68-34.05-12.11-30.98,3.22-65.59,34.06-77.61l401.95-156.7c22.14-8.62,47.29-3.39,64.13,13.36,8.45,8.39,14.02,18.88,16.39,30.03"/>
  </g>
</svg>