<?xml version="1.0" encoding="UTF-8"?>
<svg id="Capa_1" data-name="Capa 1" xmlns="http://www.w3.org/2000/svg" xmlns:xlink="http://www.w3.org/1999/xlink" viewBox="0 0 800 537.04">
  <defs>
    <style>
      .cls-1 {
        fill: none;
      }

      .cls-2 {
        clip-path: url(#clippath);
      }

      .cls-3 {
        fill: #f8ab3d;
      }

      .cls-4 {
        fill: #f8ac20;
      }

      .cls-5 {
        fill: #010101;
      }

      .cls-6 {
        fill: #ed6d65;
      }

      .cls-7 {
        fill: #fff;
      }

      .cls-8 {
        fill: #f39a7b;
      }

      .cls-9 {
        fill: #ced5e7;
      }

      .cls-10 {
        fill: #d0dded;
      }

      .cls-11 {
        fill: #de8021;
      }

      .cls-12 {
        fill: #de2125;
      }

      .cls-13 {
        fill: #252d58;
      }

      .cls-14 {
        fill: #373739;
      }

      .cls-15 {
        fill: #59595a;
      }
    </style>
    <clipPath id="clippath">
      <path class="cls-1" d="M145.19,383.79c-2.61,7.98-2.61,9.37-2.61,7.98l.09-228.03c0-1.39-.09-1.18-.09-166.29H655.37l.07,386.32-510.25,.02Z"/>
    </clipPath>
  </defs>
  <g>
    <g>
      <path class="cls-9" d="M42.57,70.8H757.43c12.35,0,22.37,10.02,22.37,22.37v421.5c0,12.35-10.02,22.37-22.37,22.37H42.57c-12.35,0-22.37-10.02-22.37-22.37V93.17c0-12.35,10.02-22.37,22.37-22.37Z"/>
      <path class="cls-15" d="M779.8,93.17V483.5h-69.16V70.8h46.79c12.35,0,22.37,10.02,22.37,22.37Z"/>
      <path class="cls-7" d="M751.35,93.17v421.5c0,12.35-10.02,22.37-22.37,22.37H42.57c-12.35,0-22.37-10.02-22.37-22.37V93.17c0-12.35,10.02-22.37,22.37-22.37H728.98c.33,0,.66,0,.99,.02,.25,.01,.49,.02,.73,.04h.03c.17,.01,.35,.03,.52,.05,.29,.02,.57,.06,.86,.1,.19,.02,.37,.05,.56,.09,.09,.01,.18,.03,.27,.04,.18,.03,.36,.06,.55,.11,10.19,2.09,17.86,11.1,17.86,21.91Z"/>
      <path class="cls-14" d="M733.49,71.26c-.18-.04-.36-.08-.55-.11-.09-.02-.18-.03-.27-.04-.19-.04-.37-.07-.56-.09-.29-.04-.57-.08-.86-.1-.17-.02-.35-.04-.52-.05h-.03c-.24-.02-.48-.03-.73-.04-.33-.02-.66-.02-.99-.02H42.57c-12.35,0-22.37,10.02-22.37,22.37V483.5H751.35V93.17c0-10.81-7.67-19.83-17.86-21.91Zm-11.14,373.26c0,3.36-2.72,6.08-6.08,6.08H55.29c-3.36,0-6.08-2.72-6.08-6.08V105.89c0-3.36,2.72-6.08,6.08-6.08H716.27c3.36,0,6.08,2.72,6.08,6.08V444.51Z"/>
      <path class="cls-9" d="M55.29,99.8H716.27c3.36,0,6.08,2.73,6.08,6.08V444.51c0,3.36-2.73,6.08-6.08,6.08H55.29c-3.36,0-6.08-2.73-6.08-6.08V105.89c0-3.36,2.73-6.08,6.08-6.08Z"/>
      <g>
        <path class="cls-7" d="M722.35,105.89v31.96H49.2v-31.96c0-3.36,2.72-6.08,6.08-6.08H716.27c3.36,0,6.08,2.72,6.08,6.08Z"/>
        <g>
          <path class="cls-12" d="M670.21,118.31c0,2.85-2.31,5.17-5.17,5.17s-5.17-2.31-5.17-5.17,2.31-5.17,5.17-5.17,5.17,2.31,5.17,5.17Z"/>
          <circle class="cls-13" cx="681.8" cy="118.31" r="5.17"/>
        </g>
        <path class="cls-10" d="M112.8,112.84H638.68c2.66,0,4.82,2.16,4.82,4.82v1.29c0,2.66-2.16,4.82-4.82,4.82H112.8c-2.66,0-4.82-2.16-4.82-4.82v-1.29c0-2.66,2.16-4.82,4.82-4.82Z"/>
        <path class="cls-5" d="M73.51,118.31v5.06c0,.71-.77,1.16-1.39,.8l-4.38-2.53-4.38-2.53c-.62-.36-.62-1.25,0-1.61l4.38-2.53,4.38-2.53c.62-.36,1.39,.09,1.39,.8v5.06Z"/>
        <path class="cls-5" d="M81.21,118.31v5.06c0,.71,.77,1.16,1.39,.8l4.38-2.53,4.38-2.53c.62-.36,.62-1.25,0-1.61l-4.38-2.53-4.38-2.53c-.62-.36-1.39,.09-1.39,.8v5.06Z"/>
      </g>
    </g>
    <g>
      <rect class="cls-14" x="692" y="116.67" width="12.41" height="2.92" rx="1.3" ry="1.3" transform="translate(120.97 528.3) rotate(-45)"/>
      <rect class="cls-14" x="696.75" y="111.92" width="2.92" height="12.41" rx="1.3" ry="1.3" transform="translate(120.97 528.3) rotate(-45)"/>
    </g>
    <g>
      <g>
        <path class="cls-7" d="M138.02,145.56h493.72c7.02,0,12.72,5.7,12.72,12.72V424.25c0,7.02-5.7,12.72-12.72,12.72H138.02c-7.02,0-12.72-5.7-12.72-12.72V158.28c0-7.02,5.7-12.72,12.72-12.72Z"/>
        <g>
          <path class="cls-9" d="M275.56,294.66h-113.83c-1.75,0-3.16-1.42-3.16-3.16h0c0-1.75,1.42-3.16,3.16-3.16h113.83c1.75,0,3.16,1.42,3.16,3.16h0c0,1.75-1.42,3.16-3.16,3.16Z"/>
          <path class="cls-9" d="M275.56,267.91h-113.83c-1.75,0-3.16-1.42-3.16-3.16h0c0-1.75,1.42-3.16,3.16-3.16h113.83c1.75,0,3.16,1.42,3.16,3.16h0c0,1.75-1.42,3.16-3.16,3.16Z"/>
          <path class="cls-9" d="M275.56,321.42h-113.83c-1.75,0-3.16-1.42-3.16-3.16h0c0-1.75,1.42-3.16,3.16-3.16h113.83c1.75,0,3.16,1.42,3.16,3.16h0c0,1.75-1.42,3.16-3.16,3.16Z"/>
        </g>
        <g>
          <path class="cls-9" d="M625.32,294.66h-113.83c-1.75,0-3.16-1.42-3.16-3.16h0c0-1.75,1.42-3.16,3.16-3.16h113.83c1.75,0,3.16,1.42,3.16,3.16h0c0,1.75-1.42,3.16-3.16,3.16Z"/>
          <path class="cls-9" d="M625.32,267.91h-113.83c-1.75,0-3.16-1.42-3.16-3.16h0c0-1.75,1.42-3.16,3.16-3.16h113.83c1.75,0,3.16,1.42,3.16,3.16h0c0,1.75-1.42,3.16-3.16,3.16Z"/>
          <path class="cls-9" d="M625.32,321.42h-113.83c-1.75,0-3.16-1.42-3.16-3.16h0c0-1.75,1.42-3.16,3.16-3.16h113.83c1.75,0,3.16,1.42,3.16,3.16h0c0,1.75-1.42,3.16-3.16,3.16Z"/>
        </g>
        <path class="cls-14" d="M125.29,391.72H644.46v42.56c0,1.48-1.21,2.69-2.7,2.69H127.99c-1.49,0-2.7-1.21-2.7-2.69v-42.56Z"/>
        <g>
          <path class="cls-7" d="M593.46,408.49v-3.84h4.8v-3.41h-6.51c-.94,0-1.71,.76-1.71,1.71v5.54h3.41Z"/>
          <path class="cls-7" d="M593.46,415.32h-3.41v5.84c0,.94,.76,1.71,1.71,1.71h6.51v-3.41h-4.8v-4.13Z"/>
          <path class="cls-7" d="M608.26,408.49h3.41v-5.54c0-.94-.76-1.71-1.71-1.71h-6.26v3.41h4.55v3.84Z"/>
          <path class="cls-7" d="M608.26,415.32v4.13h-4.55v3.41h6.26c.94,0,1.71-.76,1.71-1.71v-5.84h-3.41Z"/>
        </g>
        <polygon class="cls-7" points="155.54 412.79 155.54 402.01 164.88 407.4 174.21 412.79 164.88 418.18 155.54 423.57 155.54 412.79"/>
        <g>
          <path class="cls-7" d="M204.03,403.09h4.1c.46,0,.84,.38,.84,.84v17.95c0,.46-.38,.84-.84,.84h-4.1c-.46,0-.84-.38-.84-.84v-17.95c0-.46,.38-.84,.84-.84Z"/>
          <rect class="cls-7" x="215.28" y="403.09" width="5.79" height="19.63" rx=".84" ry=".84"/>
        </g>
        <g>
          <rect class="cls-9" x="125.29" y="383.21" width="519.16" height="8.51"/>
          <rect class="cls-12" x="125.29" y="383.21" width="266.39" height="8.51"/>
        </g>
        <g>
          <g>
            <path class="cls-14" d="M561.44,350.1h5.86v12.83h7.84v4.54h-13.7v-17.37Z"/>
            <path class="cls-14" d="M576.75,350.1h5.86v17.37h-5.86v-17.37Z"/>
            <path class="cls-14" d="M604,350.1l-7.35,17.37h-5.76l-7.35-17.37h6.3l4.15,10.15,4.24-10.15h5.76Z"/>
            <path class="cls-14" d="M619.01,363.05v4.42h-14.44v-17.37h14.12v4.42h-8.36v2.04h7.35v4.22h-7.35v2.28h8.69Z"/>
          </g>
          <path class="cls-12" d="M551.8,358.64c0,3.95-3.2,7.14-7.14,7.14s-7.14-3.2-7.14-7.14,3.2-7.14,7.14-7.14,7.14,3.2,7.14,7.14Z"/>
        </g>
      </g>
      <g class="cls-2">
        <g>
          <g>
            <g>
              <path class="cls-8" d="M224.24,211.95s-3.14,19.14-17.23,22.57c-11.38,2.76-22.11-8.17-25.82-12.47-.89-1.03-1.37-1.68-1.37-1.68,0,0-.85,.09-2.11,.07-2.97-.04-8.24-.65-10.31-4.29-2.94-5.2,7.77-8.75,7.77-8.75,0,0-5.49-4.91-4.12-8.47,1.36-3.51,8.72-4.24,8.72-4.24,0,0-7.93-5.15-5.28-9.64,3.99-6.75,12.2,.68,12.86,1.09-.52-.59-10.8-11.23-5.17-13.14,4.91-1.67,12.98,3.85,18.29,9.33,.84,.87,1.32,1.37,1.32,1.37,0,0,.32-.24,.88-.61,2.66-1.78,10.81-6.53,16-2.2,6.28,5.24,5.57,31.09,5.57,31.09Z"/>
              <path class="cls-6" d="M209.53,223.7c-.35,.17-.77,.15-1.11-.08-.51-.34-.65-1.04-.3-1.55,1.86-2.76,2.43-5.58,1.7-8.38-1.86-7.17-11.45-12.13-11.54-12.17-.55-.28-.77-.95-.49-1.5,.28-.55,.95-.77,1.5-.49,.43,.22,10.58,5.48,12.69,13.61,.89,3.44,.22,6.87-2.01,10.19-.11,.17-.27,.3-.44,.38Z"/>
              <path class="cls-6" d="M199.75,196.11c0,1.33-.55,2.38-1.58,3.05-.21,.14-.46,.26-.73,.37-.57,.22-1.26,.37-2.02,.46,.55,.36,1.04,.75,1.43,1.17,.39,.41,.69,.85,.86,1.31,.24,.67,.34,1.69-.5,2.82-1.8,2.38-5.94,3.35-9.32,3.75,2.41,1.42,4.52,3.36,5.21,5.3,.44,1.26,.3,2.44-.43,3.41-.51,.67-1.37,1.27-2.43,1.78-2.64,1.28-6.5,2.09-9.08,2.51-.89-1.03-1.37-1.68-1.37-1.68,0,0-.85,.09-2.12,.07,.16-.13,.36-.21,.58-.24,4.14-.48,11.23-1.94,12.63-3.79,.18-.25,.36-.62,.11-1.32-.77-2.14-4.79-4.97-8.27-5.82-.56-.13-.92-.66-.84-1.22,.07-.58,.56-.99,1.12-.98,2.77,.05,10.37-.42,12.4-3.12,.29-.39,.22-.6,.17-.71-.18-.51-.81-1.04-1.69-1.55-1.79-1.04-4.59-2-6.62-2.49-.24-.06-.43-.18-.58-.35-.24-.26-.35-.63-.25-1,.14-.6,.74-.97,1.35-.83,.39,.09,1.19,.29,2.18,.6,1.88,.22,3.69,.32,5.06,.18,.82-.08,1.47-.25,1.9-.52,.25-.17,.55-.46,.56-1.19,.01-.92-.46-2.14-1.2-3.39-.24-.39-.2-.89,.09-1.25,0,0,.02-.02,.02-.03,.48-.6,1.41-.55,1.8,.12,.93,1.57,1.53,3.18,1.52,4.58Z"/>
              <path class="cls-14" d="M191.55,175.17c1.93,1.19,3.61,2.3,5.24,3.85,1.59,1.51,2.6,2.28,3.69,3.28,.08-.13-.07,.12,0,0l-21.5-91.24c-.32-1.4-2.41-.97-2.17,.44l14.74,83.66s0,0,0,0Z"/>
              <path class="cls-14" d="M210.25,225.84c-7.45,4.81-9.55,1.25-9.55,1.25l-3.78-21.43c.11-.12,.21-.24,.31-.37,.83-1.13,.73-2.15,.5-2.82-.17-.47-.47-.9-.86-1.31-.25-.27-.55-.52-.87-.77l-.08-.47c.56-.09,1.09-.22,1.53-.39,.27-.11,.51-.22,.73-.37,.68-.44,1.15-1.06,1.38-1.81,.9,.86,2.03,1.37,3.35,1.5,.36,.04,.71,.05,1.08,.03l6.26,26.95Z"/>
              <path class="cls-6" d="M216.72,192.38c-.21,.19-3.5,3.06-7.34,4.93-2.13,1.03-4.43,1.76-6.47,1.55-1.68-.18-3.05-.94-4.05-2.29-3.55-4.76-.51-10.98,1.62-14.27,.84,.87,1.32,1.37,1.32,1.37,0,0,.32-.24,.88-.61-1.83,2.71-4.9,8.32-2.02,12.18,.62,.83,1.43,1.29,2.48,1.4,3.95,.42,10.08-4.14,12.11-5.93,.46-.41,1.17-.37,1.58,.1,.41,.46,.36,1.17-.1,1.58Z"/>
            </g>
            <path class="cls-4" d="M331.85,170.25v-.04s0-.04,0,0l-.03,.12-.06,.27-.13,.66-.3,1.45c-.1,.49-.21,1-.33,1.52-.11,.51-.23,1.03-.35,1.55-.47,2.08-1,4.2-1.56,6.32-1.16,4.24-2.39,8.5-3.83,12.68-1.44,4.19-2.93,8.36-4.63,12.43-.86,2.03-1.71,4.06-2.64,6.05-.87,2.02-1.84,3.97-2.78,5.95-1.96,3.9-4.01,7.74-6.23,11.44-.52,.95-1.12,1.84-1.68,2.76-.58,.91-1.11,1.85-1.71,2.73-1.19,1.78-2.34,3.59-3.6,5.31-2.42,3.52-5.08,6.81-7.74,10.09-2.76,3.18-5.56,6.32-8.55,9.23-.75,.73-1.48,1.48-2.24,2.2l-2.32,2.1-1.16,1.05-.29,.26,.15-.13,.2-.17c.27-.22,.56-.42,.86-.61,1.24-.88,2.76-1.55,4.17-1.93,.36-.09,.65-.19,.99-.25,.17-.03,.33-.06,.5-.07l.42-.07c.27-.04,.57-.06,.83-.06,.22-.02,.43-.03,.65-.03,.1,0,.24,.02,.31,.02,.08,0,.15,0,.23,0,.15,0,.32,.04,.44,.05,.09,0,.18,.01,.27,.03l.13,.03s.04,0,.05,0c.33,.1-.32,0-1.29-.42-.98-.41-2.3-1.1-3.73-1.95-1.43-.85-2.98-1.87-4.57-3.01-3.19-2.25-6.53-4.95-9.87-7.82-3.35-2.89-6.71-5.97-10.05-9.18-3.35-3.19-6.7-6.51-9.99-9.91-3.31-3.39-6.61-6.85-9.85-10.36-1.64-1.74-3.26-3.5-4.86-5.27l-4.67-5.12-36.1,27.08,1.2,1.82,1.14,1.69,2.28,3.31c1.54,2.18,3.09,4.33,4.66,6.48,3.17,4.26,6.42,8.48,9.79,12.63,3.4,4.14,6.87,8.25,10.53,12.3,1.84,2.02,3.7,4.03,5.62,6.03,1.93,1.99,3.9,3.97,5.94,5.94,4.09,3.94,8.41,7.81,13.29,11.61,2.45,1.89,5.03,3.77,7.85,5.61,2.83,1.85,5.91,3.64,9.5,5.35,3.61,1.69,7.72,3.33,12.99,4.44l.98,.2c.34,.06,.71,.12,1.06,.17,.71,.11,1.43,.21,2.15,.3,.74,.08,1.55,.13,2.32,.18l1.17,.06c.39,.02,.84,.01,1.25,.01,.85,0,1.7-.03,2.54-.07,.89-.06,1.81-.16,2.71-.27,.45-.06,.9-.11,1.36-.19,.47-.09,.95-.18,1.42-.28,.95-.2,1.87-.4,2.83-.68,3.84-1.08,7.64-2.87,10.99-5.12,.81-.56,1.59-1.15,2.36-1.76l.58-.46,.52-.43,.41-.37,1.66-1.47,3.3-2.96c1.08-1.01,2.13-2.05,3.19-3.07,4.27-4.08,8.19-8.48,12.01-12.93,3.72-4.53,7.31-9.16,10.56-13.97,3.33-4.78,6.32-9.74,9.17-14.75l2.07-3.79c.68-1.27,1.31-2.56,1.96-3.84,.65-1.28,1.3-2.56,1.89-3.86l1.82-3.89c4.72-10.41,8.51-21.13,11.46-32.05,1.45-5.47,2.75-10.98,3.75-16.59,.5-2.81,.97-5.63,1.35-8.52,.1-.72,.19-1.45,.27-2.18,.09-.73,.17-1.47,.25-2.22,.08-.74,.15-1.52,.22-2.29l.21-2.76-47.66-4.37Z"/>
            <path class="cls-11" d="M218.5,231.73c.15,1.71,1.65,2.98,3.37,2.84,1.71-.15,2.98-1.65,2.84-3.37-.15-1.71-1.65-2.98-3.37-2.84-1.71,.15-2.98,1.65-2.84,3.37Z"/>
            <g>
              <path class="cls-11" d="M283.22,285.22c.6,0,1.14-.4,1.29-1.01,2.5-9.99,2.18-22.52,2.17-23.05-.02-.73-.63-1.31-1.37-1.29-.73,.02-1.31,.63-1.29,1.37,0,.13,.32,12.7-2.09,22.33-.18,.71,.25,1.43,.97,1.61,.11,.03,.22,.04,.32,.04Z"/>
              <path class="cls-11" d="M291.73,275.59c.2,0,.4-.04,.59-.14,.66-.33,.92-1.13,.6-1.78-.18-.36-4.48-8.96-6.51-11.52-.46-.58-1.29-.67-1.87-.22-.58,.46-.67,1.29-.22,1.87,1.86,2.35,6.17,10.97,6.22,11.06,.23,.47,.7,.74,1.19,.74Z"/>
            </g>
            <g>
              <path class="cls-11" d="M208.94,257.57c.35,0,.69-.14,.95-.4,11.13-11.48,36.27-29.62,36.52-29.81,.6-.43,.73-1.26,.3-1.86-.43-.6-1.26-.73-1.86-.3-.25,.18-25.58,18.46-36.87,30.11-.51,.53-.5,1.37,.03,1.88,.26,.25,.59,.38,.93,.38Z"/>
              <path class="cls-11" d="M219.7,247.75c.3,0,.6-.1,.85-.31,.56-.47,.64-1.31,.17-1.87l-13.44-16.13c-.47-.56-1.31-.64-1.87-.17-.56,.47-.64,1.31-.17,1.87l13.44,16.13c.26,.32,.64,.48,1.02,.48Z"/>
            </g>
          </g>
          <g>
            <g>
              <path class="cls-14" d="M364.71,561.56l18.02-106.34,1.48-8.69-51.87-18.31-2.96-1.04-12.35-4.36s-.99,4.55-2.52,12.37c-.18,.94-.38,1.94-.58,2.97-4.87,25.15-13.99,76.98-16.48,123.4h67.26Z"/>
              <path class="cls-15" d="M355.51,561.56c7.79-42.4,17.81-104.36,18.4-107.98,.12-.77-.4-1.48-1.16-1.61-.76-.13-1.48,.4-1.6,1.16-.14,.89-10.54,65.22-18.49,108.42h2.86Z"/>
            </g>
            <g>
              <path class="cls-14" d="M469.66,388.87s3.9,37.03-4.52,57.65c-8.43,20.62-117.5,10.01-145.3-8.55-11.4-7.61,12.88-77.85,12.88-77.85l136.94,28.74Z"/>
              <path class="cls-15" d="M313.92,438.17c1.65-.29,3.26-.71,4.83-1.24,2.5-.85,4.89-2,7.17-3.47,2.36-1.52,4.5-3.29,6.41-5.23,12.02-12.13,15.56-30.47,15.73-31.36,.14-.76-.36-1.49-1.12-1.64-.76-.13-1.49,.36-1.64,1.12-.04,.22-3.72,19.29-15.93,30.83-1.52,1.45-3.18,2.77-4.98,3.93-2.17,1.39-4.45,2.48-6.85,3.26-1,.33-2.01,.6-3.05,.82-.18,.95-.38,1.94-.58,2.98Z"/>
              <path class="cls-15" d="M381.22,448.52c-.04,.74,.56,1.37,1.32,1.42t.01,0c.77,.04,1.43-.54,1.46-1.28,.25-5.06,.54-10.25,.87-15.43,.06-.91,.11-1.82,.18-2.73,1.1-16.93,2.5-33.54,3.55-45.27,.09-.95,.17-1.87,.25-2.75,.24-2.57,.45-4.86,.63-6.79-.93-.14-1.86-.29-2.77-.45-.18,1.93-.4,4.24-.63,6.84-.08,.88-.16,1.8-.25,2.75-1.04,11.63-2.43,28.1-3.53,44.92-.06,.93-.12,1.86-.19,2.79-.34,5.37-.65,10.75-.9,15.99Z"/>
              <path class="cls-15" d="M377.23,430.66c.44,.21,2.4,1.12,4.89,1.87,.87,.27,1.81,.51,2.77,.7,.88,.17,1.77,.29,2.65,.34,1.69,.1,3.33-.08,4.7-.74,1.7-.81,2.81-2.29,3.19-4.28,1.02-5.22,3.16-26.78,4.59-42.03,.09-.94,.18-1.85,.26-2.74,.23-2.44,.43-4.66,.61-6.54-.93-.11-1.86-.22-2.79-.35-.17,1.9-.38,4.14-.61,6.61-.08,.88-.17,1.8-.26,2.74-1.44,15.21-3.57,36.74-4.56,41.8-.22,1.17-.76,1.92-1.69,2.36-1.48,.71-3.71,.56-5.92,.08-.94-.2-1.88-.47-2.76-.75-1.6-.52-3-1.11-3.84-1.51-.69-.33-1.53-.06-1.87,.61-.34,.67-.06,1.48,.64,1.81Z"/>
            </g>
            <g>
              <path class="cls-14" d="M456.1,561.56c4.32-39.47,9.3-92.28,12.12-122.88,.09-.96,.17-1.88,.26-2.8,1.24-13.5,2.01-22,2.01-22-6.69-2.79-18.83-.87-31.75,2.79-.93,.26-1.87,.53-2.81,.81-22.95,6.88-47.27,18.48-47.27,18.48v125.6h67.43Z"/>
              <path class="cls-15" d="M449.5,561.56c3.73-43.87,8.15-107.27,8.2-108.1,.05-.77-.53-1.44-1.3-1.5-.77-.05-1.44,.53-1.49,1.3-.06,.83-4.49,64.46-8.22,108.3h2.81Z"/>
              <path class="cls-15" d="M428.2,396.86c.12,.65,2.04,10.58,7.73,20.62,3.35,5.91,8.03,11.86,14.4,15.97,5.36,3.45,11.35,5.2,17.89,5.23,.09-.96,.17-1.89,.26-2.8-6.1,0-11.67-1.6-16.63-4.78-5.7-3.67-9.97-9.02-13.11-14.43-5.8-9.98-7.76-20.16-7.79-20.32-.14-.76-.87-1.27-1.63-1.13-.76,.15-1.27,.87-1.13,1.64Z"/>
            </g>
          </g>
          <g>
            <g>
              <path class="cls-4" d="M316.01,386.54c30.19,28.18,101.6,43.17,156.63,16.37,6.04-16.5,12.68-75.38,14.45-92.98,.36-3.5,.64-7.01,.88-10.52,1.11-16.88,.87-33.88,.06-51.68-.05-.97-.09-1.93-.14-2.91-.72-14.63-1.8-29.82-2.81-45.93-2.01-31.9-12.66-51.56-31.16-54.5-8.6-1.37-15.4-3.79-20.42-6.16-.61-.29-1.19-.57-1.76-.86-5.97-3.04-9.34-5.78-9.34-5.78h-41.26c-3.55,5.18-8.03,8.44-12.84,10.73-.53,.26-1.07,.5-1.62,.74-14.65,6.32-31.72,5.06-35.25,22.73-2.21,11.09,6.28,33.9,5.39,80.15-.06,3.39-.18,6.91-.35,10.56-.16,3.42-.38,6.95-.65,10.6-.25,3.39-.56,6.91-.92,10.51-.31,3.16-.67,6.4-1.07,9.72-.41,3.41-.87,6.89-1.38,10.47-2.75,19.22-10.11,64.02-16.44,88.74Z"/>
              <path class="cls-11" d="M457.43,396.17c-.11,0-.22-.01-.33-.04-.66-.18-1.05-.86-.87-1.52,22.92-84.02,18.29-169.43,18.24-170.28-.04-.68,.48-1.27,1.16-1.31,.69-.04,1.27,.48,1.31,1.16,.05,.86,4.7,86.67-18.32,171.08-.15,.55-.65,.91-1.19,.91Z"/>
              <path class="cls-11" d="M333.08,287.04c.67,0,1.24-.5,1.32-1.18,2.74-24.3,2.77-72.65,2.77-73.13,0-.73-.6-1.33-1.33-1.33s-1.33,.6-1.33,1.33c0,.48-.03,48.68-2.76,72.84-.08,.73,.44,1.39,1.17,1.47,.05,0,.1,0,.15,0Z"/>
              <path class="cls-11" d="M389.6,378.57c.15,1.71,1.65,2.98,3.37,2.84,1.71-.15,2.98-1.65,2.84-3.37-.15-1.71-1.65-2.98-3.37-2.84-1.71,.15-2.98,1.65-2.84,3.37Z"/>
              <path class="cls-11" d="M389.11,393.61c.15,1.71,1.65,2.98,3.37,2.84,1.71-.15,2.98-1.65,2.84-3.37s-1.65-2.98-3.37-2.84c-1.71,.15-2.98,1.65-2.84,3.37Z"/>
              <path class="cls-11" d="M352.78,228.07c-8.1-9.41-5.06-30.35-4.93-31.24,.1-.65,.66-1.13,1.31-1.13h27.48c.66,0,1.22,.48,1.32,1.13,.13,.89,3.17,21.83-4.93,31.24-2.57,2.99-5.98,4.5-10.12,4.5s-7.55-1.52-10.12-4.5Zm-2.44-29.71c-.51,4.42-1.86,20.64,4.46,27.97,2.07,2.41,4.73,3.58,8.11,3.58s6.03-1.17,8.11-3.58c6.31-7.32,4.96-23.55,4.46-27.98h-25.13Z"/>
            </g>
            <g>
              <path class="cls-14" d="M426.13,29.85c-7.69-4.98-31.9-7.48-31.9-7.48,0,0-3.99-10.47-8.47-13.46-10.2-6.8-11.47,6.98-11.47,6.98,0,0-9.97-13.96-18.94-9.97-8.97,3.99,2.49,16.95,2.49,16.95,0,0-13.46-2.49-11.96,8.97,1.5,11.47,14.46,16.45,14.46,16.45,0,0-3.99,6.48-1.99,16.95,1.99,10.47,6.48,10.97,6.48,10.97l55.83,4.99s11.47,0,14.46-14.46c2.99-14.46-6.98-20.44-6.98-20.44,0,0,6.48-10.97-1.99-16.45Z"/>
              <g>
                <path class="cls-8" d="M380.53,124.56v10.49c1.23,.99,2.47,1.85,3.71,2.6,18.21,10.94,37.86-2.6,37.86-2.6v-36.36l-36.61,22.79-4.96,3.09Z"/>
                <path class="cls-14" d="M380.53,124.26v10.79c1.23,.99,2.47,1.85,3.71,2.6,15.51-6.14,26.79-22.41,26.79-22.41l-25.55,6.23-4.96,2.78Z"/>
                <path class="cls-3" d="M422,124.4s12.25,2.05,15.62,16.08c-11.94,12.49-22.5,23.32-39.58,26.49v-25.09s15.08-3.77,23.96-17.47Z"/>
                <path class="cls-3" d="M380.14,128.02s-10.95,2.35-15.2,16.35c11.04,13.43,16.93,18.48,33.1,22.59v-25.09s-9.02-.14-17.9-13.85Z"/>
                <g>
                  <g>
                    <polygon class="cls-14" points="373.97 323.04 381.07 340.17 381.07 340.18 384.25 347.87 393.26 369.62 397.6 361.22 399.15 358.25 402.63 351.52 404.17 348.54 407.66 341.81 409.2 338.84 412.69 332.11 412.69 332.1 414.23 329.13 417.5 322.8 417.43 322.12 416.92 317.1 415.76 305.72 415.25 300.69 414.1 289.31 413.58 284.29 412.43 272.91 411.91 267.89 410.76 256.5 410.24 251.48 409.09 240.1 408.57 235.08 407.42 223.7 406.9 218.67 405.75 207.3 405.23 202.27 404.08 190.89 403.56 185.87 402.37 174.11 393.67 173.77 393.42 175.72 392.89 179.71 391.7 188.74 391.17 192.72 389.98 201.75 389.46 205.74 388.26 214.77 387.74 218.75 386.55 227.78 386.02 231.77 384.83 240.8 384.3 244.79 383.11 253.82 382.58 257.8 381.39 266.83 380.87 270.82 379.68 279.85 379.15 283.83 377.96 292.86 377.43 296.85 376.24 305.88 375.71 309.86 374.52 318.9 374 322.88 373.97 323.04"/>
                    <g>
                      <polygon class="cls-15" points="392.89 179.71 404.08 190.89 403.56 185.87 393.42 175.72 392.89 179.71"/>
                      <polygon class="cls-15" points="391.17 192.72 405.75 207.3 405.23 202.27 391.7 188.74 391.17 192.72"/>
                      <polygon class="cls-15" points="389.46 205.74 407.42 223.7 406.9 218.67 389.98 201.75 389.46 205.74"/>
                      <polygon class="cls-15" points="387.74 218.75 409.09 240.1 408.57 235.08 388.26 214.77 387.74 218.75"/>
                      <polygon class="cls-15" points="386.02 231.77 410.76 256.5 410.24 251.48 386.55 227.78 386.02 231.77"/>
                      <polygon class="cls-15" points="384.3 244.79 412.43 272.91 411.91 267.89 384.83 240.8 384.3 244.79"/>
                      <polygon class="cls-15" points="382.58 257.8 414.1 289.31 413.58 284.29 383.11 253.82 382.58 257.8"/>
                      <polygon class="cls-15" points="380.87 270.82 415.76 305.72 415.25 300.69 381.39 266.83 380.87 270.82"/>
                      <polygon class="cls-15" points="379.15 283.83 417.43 322.12 416.92 317.1 379.68 279.85 379.15 283.83"/>
                      <polygon class="cls-15" points="377.43 296.85 412.69 332.1 414.23 329.13 377.96 292.86 377.43 296.85"/>
                      <polygon class="cls-15" points="375.71 309.86 407.66 341.81 409.2 338.84 376.24 305.88 375.71 309.86"/>
                      <polygon class="cls-15" points="374 322.88 402.63 351.52 404.17 348.54 374.52 318.9 374 322.88"/>
                      <polygon class="cls-15" points="381.07 340.18 384.25 347.87 397.6 361.22 399.15 358.25 381.07 340.18"/>
                    </g>
                    <polygon class="cls-15" points="402.37 174.11 398.04 180.54 393.67 173.77 392.91 179.56 397.97 184.71 402.83 178.59 402.37 174.11"/>
                  </g>
                  <polygon class="cls-14" points="409.64 163.3 398.04 180.54 386.93 163.3 398.04 148.9 409.64 163.3"/>
                  <g>
                    <path class="cls-11" d="M416.38,175.1c.3,0,.59-.1,.83-.29,11.48-9.16,21.26-32.82,21.67-33.82,.28-.68-.05-1.46-.73-1.73-.68-.28-1.46,.05-1.73,.73-.09,.23-9.3,22.51-19.81,31.86l-17.47-23.72c-.25-.34-.66-.55-1.08-.54-.43,0-.83,.21-1.07,.56l-16.3,23.14c-2.49-4.49-9.03-16.42-14.53-27.48-.33-.66-1.12-.93-1.78-.6-.66,.33-.93,1.12-.6,1.78,6.94,13.96,15.53,29.29,15.62,29.45,.22,.4,.64,.65,1.09,.68,.46,.03,.89-.19,1.16-.56l16.45-23.36,17.21,23.38c.21,.29,.54,.48,.9,.53,.06,0,.12,.01,.17,.01Z"/>
                    <path class="cls-11" d="M398.07,150.23c.73,0,1.33-.6,1.33-1.33v-5.94c0-.73-.6-1.33-1.33-1.33s-1.33,.6-1.33,1.33v5.94c0,.73,.6,1.33,1.33,1.33Z"/>
                  </g>
                </g>
              </g>
              <path class="cls-6" d="M367.42,78.08s-5.96-7.04-9.32,0c-3.37,7.04-.78,21.28,8.29,18.95l1.04-18.95Z"/>
              <path class="cls-8" d="M361.07,102.76s-.03,21.68,22.52,21.63c22.42-.04,37.69-17.64,38.48-18.46,.01-.01,.02-.02,.02-.02l.25-4.56,1.27-23.65,.68-12.64s2.86-22.77-18.77-26.92c-15.81-3.03-30.63-.41-38.11,7.84-.24,.27-.48,.54-.7,.82-2.36,2.9-3.85,6.43-4.26,10.6l-.7,22.71-.17,5.57-.53,17.08Z"/>
              <path class="cls-14" d="M386.96,63.83s9.46,7.05,15.1,2.55c5.63-4.49-7.49-9.39-11.8-9.02-4.31,.37-6.1,4.87-3.29,6.47Z"/>
              <path class="cls-14" d="M376.66,63.83s-9.46,7.05-15.1,2.55c-5.63-4.49,7.49-9.39,11.8-9.02,4.31,.37,6.1,4.87,3.29,6.47Z"/>
              <path class="cls-6" d="M384.12,105.6c3.61,.32,6.31-1.95,6.45-2.07,.42-.36,.46-.99,.11-1.41-.36-.42-.99-.46-1.4-.11-.14,.12-3.27,2.71-6.93,1.08-.5-.22-1.09,0-1.32,.51-.22,.5,0,1.09,.51,1.32,.9,.4,1.77,.61,2.59,.68Z"/>
              <path class="cls-7" d="M393.9,90.12s-13.76,2.77-20.71,2.15c0,0,2.59,10.24,12.83,7.66,7.97-2.01,7.89-9.8,7.89-9.8Z"/>
              <path class="cls-14" d="M366.72,46.8c3.54-1.25,6.09-.09,11.61,2.33,7.97,3.5,16.88,.35,24.76-3.68,7.88-4.03,12.6,1.57,9.92,5.25-2.68,3.68-2.39,6.65,.58,11.34,2.98,4.68-5.63,6.86-.88,10.54,2,1.55,1.88,3.86,1.07,6.02-.88,2.35,1.18,4.76,3.65,4.3h0c2.57-.65,6.18-5.2,6.18-5.2l.68-12.64s2.86-22.77-18.77-26.92c-15.81-3.03-30.63-.41-38.11,7.84-.24,.27-.48,.54-.7,.82Z"/>
              <path class="cls-6" d="M391.18,82.9c0,1.58,3.25,2.86,7.26,2.86s7.26-1.28,7.26-2.86-3.25-2.86-7.26-2.86-7.26,1.28-7.26,2.86Z"/>
              <path class="cls-6" d="M361.59,85.68c.56,.06,1.15,.08,1.75,.08,4.01,0,7.26-1.28,7.26-2.86s-3.25-2.86-7.26-2.86c-.54,0-1.07,.02-1.58,.07l-.17,5.57Z"/>
              <path class="cls-14" d="M388.04,74.21c0,2.17,.98,3.93,2.2,3.93s2.2-1.76,2.2-3.93-.98-3.93-2.2-3.93-2.2,1.76-2.2,3.93Z"/>
              <path class="cls-14" d="M366.25,74.21c0,2.17,.98,3.93,2.2,3.93s2.2-1.76,2.2-3.93-.98-3.93-2.2-3.93-2.2,1.76-2.2,3.93Z"/>
              <path class="cls-14" d="M415.02,97.14c.1,.24,2.96,6.86,7.06,8.8,.01-.01,.02-.02,.02-.02l.24-4.56s-3.56-.61-7.33-4.22Z"/>
              <path class="cls-8" d="M418.99,82.08s8.67-11.65,15.02-2.49c5.23,7.54-4.66,27.19-15.02,20.46v-17.97Z"/>
              <path class="cls-14" d="M420.17,96.54c.45,0,.84-.34,.89-.79,.96-8.81,8.35-11.89,8.66-12.01,.46-.18,.68-.7,.5-1.16-.18-.46-.7-.68-1.16-.5-.35,.14-8.69,3.57-9.77,13.48-.05,.49,.3,.93,.79,.98,.03,0,.07,0,.1,0Z"/>
              <path class="cls-14" d="M428.5,91.13c.26,0,.52-.11,.69-.33,.31-.38,.25-.94-.13-1.25-.36-.29-3.56-2.81-6.23-2.12-.48,.12-.77,.61-.64,1.09,.12,.48,.61,.77,1.09,.64,1.54-.39,3.89,1.15,4.67,1.78,.17,.13,.36,.2,.56,.2Z"/>
              <path class="cls-14" d="M381,85.13c.49,0,.89-.4,.89-.89s-.4-.89-.89-.89c-3.28,0-4.82-1.73-5.33-2.48,3.56-7.34,7.09-14.73,7.13-14.8,.21-.44,.02-.98-.42-1.19-.45-.21-.98-.02-1.19,.42-.04,.08-3.71,7.75-7.33,15.22-.12,.24-.12,.52,0,.77,.07,.16,1.86,3.85,7.14,3.85Z"/>
            </g>
          </g>
        </g>
        <g>
          <g>
            <path class="cls-8" d="M596.81,165.53s12.01,12.13,23.87,7.4c9.57-3.82,11.69-17.14,12.16-22.11,.11-1.19,.13-1.9,.13-1.9,0,0,.65-.37,1.55-1.03,2.11-1.54,5.58-4.67,5.2-8.34-.54-5.23-10.04-2.32-10.04-2.32,0,0,1.44-6.32-1.37-8.18-2.76-1.82-8.42,1.41-8.42,1.41,0,0,3.06-7.74-1.13-9.61-6.31-2.81-8.41,6.71-8.67,7.33,.07-.69,3.07-29.86-1.94-28.37-4.37,1.31-8.4,25.69-9.42,32.32-.16,1.05-.25,1.65-.25,1.65,0,0-.35-.01-.94,0-2.81,.08-11.08,.82-12.6,6.58-1.83,6.96,11.86,25.14,11.86,25.14Z"/>
            <path class="cls-6" d="M621.39,144.91c-1,2.25-1.53,4.71-1.03,6.46,.32,1.13,1.03,1.9,2.05,2.23,.7,.22,1.62,.21,2.64,.04,2.55-.43,5.72-1.82,7.8-2.83,.11-1.19,.13-1.9,.13-1.9,0,0,.66-.37,1.55-1.03-.18-.01-.37,.03-.54,.13-3.22,1.76-9.04,4.34-10.99,3.72-.25-.08-.57-.26-.75-.89-.54-1.92,.9-6.01,2.96-8.39,.33-.38,.32-.94-.02-1.31-.34-.38-.91-.43-1.31-.13-1.96,1.45-7.65,4.99-10.49,4.08-.41-.13-.47-.32-.49-.42-.13-.45,.06-1.16,.43-1.98,.75-1.66,2.27-3.78,3.48-5.16,.14-.16,.22-.35,.24-.54,.04-.31-.08-.63-.33-.85-.41-.36-1.03-.32-1.39,.09-.54,.62-2.42,2.84-3.55,5.13-.41,.83-.72,1.68-.83,2.46-.07,.49-.06,.96,.05,1.38,.17,.6,.62,1.39,1.79,1.77,2.51,.79,5.97-.62,8.59-2.06Z"/>
            <path class="cls-6" d="M606.33,136.63c.39,.11,.67,.45,.7,.85,.1,1.28,.39,2.39,.87,3.05,.38,.52,.74,.58,1.01,.57,.44-.02,.99-.23,1.62-.59,1.56-.89,3.55-2.65,5.27-4.37-.02,.19-.1,.38-.24,.54-1.21,1.38-2.73,3.5-3.48,5.16-.2,.13-.4,.25-.59,.36-.62,.35-1.23,.62-1.79,.76-.25,.06-.48,.1-.71,.1-1.08,.05-2.01-.44-2.69-1.38-.72-1-1.11-2.46-1.24-4.06-.06-.68,.58-1.19,1.24-1,.01,0,.02,0,.03,0Z"/>
            <path class="cls-6" d="M592.23,147.66c.25,.03,4.07,.41,7.78-.21,2.05-.34,4.08-1,5.43-2.19,1.12-.99,1.7-2.23,1.74-3.7,.11-5.23-5.23-8.14-8.44-9.41-.16,1.05-.25,1.65-.25,1.65,0,0-.35-.01-.94,0,2.69,1.01,7.75,3.47,7.66,7.7-.02,.91-.37,1.65-1.07,2.27-2.62,2.31-9.34,2.17-11.71,1.92-.54-.06-1.03,.33-1.08,.87-.06,.54,.34,1.02,.87,1.08Z"/>
            <path class="cls-6" d="M613.36,166.46c.33-.06,.63-.28,.76-.62,.19-.51-.06-1.08-.57-1.27-2.74-1.03-4.59-2.76-5.5-5.14-2.32-6.09,2.03-14.53,2.07-14.62,.25-.48,.07-1.08-.42-1.33-.48-.25-1.08-.07-1.33,.42-.2,.38-4.8,9.32-2.16,16.23,1.12,2.92,3.35,5.04,6.64,6.28,.17,.06,.34,.08,.51,.05Z"/>
          </g>
          <path class="cls-4" d="M467.22,151.37l20.53,17.83c3.28,3.06,6.58,6.11,9.88,9.12,3.29,3.03,6.58,6.05,9.88,9.02,3.31,2.96,6.6,5.93,9.89,8.82,3.29,2.89,6.6,5.73,9.87,8.44,3.25,2.73,6.51,5.36,9.56,7.63,1.51,1.12,2.98,2.15,4.17,2.93l.79,.51,.32,.2c.07,.05,.08,.06,.12,.1,.12,.12,.2,.2,.26,.27,.11,.14,.09,.25,.23,.36,.13,.11,.44,.19,1.01,.16,1.14-.07,3.3-.81,5.76-2.24,2.46-1.42,5.19-3.48,7.89-5.89,2.7-2.43,5.45-5.17,8.11-8.14,5.32-5.96,10.46-12.68,15.3-19.72,4.88-7.03,8.32-12.46,12.72-19.94,7.12,8.6,18.05,12.86,29.91,11.44-3.35,9.09-7.21,17.93-11.57,26.7-4.41,8.74-9.29,17.39-15.22,25.86-2.98,4.23-6.18,8.46-9.88,12.58-3.7,4.11-7.83,8.18-12.86,12.01-2.52,1.91-5.27,3.77-8.38,5.44-3.1,1.67-6.55,3.19-10.4,4.33-3.84,1.14-8.1,1.9-12.55,1.98-4.44,.1-9.03-.49-13.29-1.69-2.14-.6-4.2-1.34-6.15-2.18l-1.43-.64-1.2-.59c-.41-.2-.76-.38-1.13-.58-.36-.19-.75-.39-1.08-.57-2.78-1.5-5.16-2.95-7.43-4.39-4.52-2.88-8.58-5.73-12.56-8.61-3.96-2.89-7.76-5.82-11.52-8.76-3.75-2.94-7.45-5.89-11.07-8.9-3.63-3-7.22-6.01-10.78-9.05-3.54-3.05-7.06-6.12-10.55-9.21-3.48-3.11-6.94-6.22-10.37-9.37l-5.12-4.76-2.55-2.41c-.86-.82-1.68-1.6-2.58-2.48l33.46-35.6Z"/>
          <g>
            <path class="cls-11" d="M486.81,235.58c-.25,0-.49-.07-.71-.22-13.55-9.49-37.65-29.47-37.89-29.67-.53-.44-.6-1.22-.16-1.74,.44-.53,1.22-.6,1.74-.16,.24,.2,24.26,20.12,37.73,29.55,.56,.39,.7,1.16,.3,1.72-.24,.34-.62,.53-1.02,.53Z"/>
            <path class="cls-11" d="M458.77,213.96c-.06,0-.12,0-.18-.01l-9.55-1.39c-.68-.1-1.15-.73-1.05-1.4,.1-.68,.72-1.15,1.4-1.05l9.55,1.39c.68,.1,1.15,.73,1.05,1.4-.09,.62-.62,1.06-1.22,1.06Z"/>
          </g>
          <path class="cls-11" d="M616.76,187.67c.49-.26,.77-.82,.65-1.39-.15-.68-.82-1.11-1.5-.96-17.98,3.92-26.93-13.23-27.02-13.41-.32-.62-1.08-.87-1.7-.55,0,0,0,0-.01,0-.61,.32-.86,1.07-.54,1.69,.1,.19,9.95,19.05,29.81,14.73,.11-.02,.22-.06,.31-.11Z"/>
          <path class="cls-11" d="M607.52,188c.25-.13,.46-.34,.58-.62l5.92-13.82c.27-.64-.02-1.38-.66-1.66-.64-.27-1.38,.02-1.66,.66l-5.92,13.82c-.27,.64,.02,1.38,.66,1.66,.36,.15,.76,.13,1.08-.04Z"/>
          <path class="cls-11" d="M596.92,174.72c.56,1.07,1.88,1.49,2.95,.93,1.07-.56,1.49-1.88,.93-2.95-.56-1.07-1.88-1.49-2.95-.93-1.07,.56-1.49,1.88-.93,2.95Z"/>
          <g>
            <path class="cls-11" d="M539.87,232.14c.34-.18,.6-.51,.66-.91,.01-.08,1.34-7.95,3.68-12.55,.32-.62,.07-1.38-.55-1.7-.62-.32-1.38-.07-1.7,.55-2.52,4.95-3.87,12.95-3.92,13.29-.11,.69,.35,1.34,1.04,1.45,.28,.05,.55,0,.79-.12Z"/>
            <path class="cls-11" d="M548.06,229.3c.08-.04,.16-.09,.23-.15,.53-.45,.6-1.24,.16-1.78-.04-.04-3.54-4.27-4.38-8.39-.14-.68-.81-1.12-1.49-.98-.68,.14-1.12,.8-.98,1.49,.97,4.76,4.76,9.32,4.92,9.51,.39,.46,1.03,.58,1.55,.31Z"/>
          </g>
        </g>
      </g>
    </g>
  </g>
  <circle class="cls-14" cx="372.49" cy="514.18" r="10.61"/>
</svg>